<svg xmlns="http://www.w3.org/2000/svg" viewBox="0 0 3342 1488"><defs><style>.cls-1{fill:#002e62;}.cls-2{fill:#009c4a;}</style></defs><title>Asset 2</title><g id="Layer_2" data-name="Layer 2"><g id="Layer_1-2" data-name="Layer 1"><path class="cls-1" d="M96.85,1328.34c-19.76-26.11-67.17-26.27-84.72,6.32A101.22,101.22,0,0,0,3.79,1356c-.72,3.18-2.73,6-2.75,9.38,0,.21,0,.42-.05.63-.33,0-.65,0-1,0v26l2.26,7.52,0,.11c.44,1.54.89,3.07,1.38,4.58a56.13,56.13,0,0,0,4.51,15.26c9.09,20.79,24.24,32.81,47.72,32.88,23.31.08,40.15-10.39,48.95-32.4,10.17-25.42,9.76-51.32.56-77C103.51,1337.57,100.29,1332.88,96.85,1328.34Zm-13.42,80.77c-5.16,12.59-15.33,19.39-27.58,19.18A25.71,25.71,0,0,1,38,1420.64a34.79,34.79,0,0,1-9.89-17c-3.82-15.45-4.05-31,.18-46.37,3.29-12,10.48-20.9,23.47-23.14,14.17-2.45,26.16,4.55,31.83,18.29,3.74,9.06,4.7,18.65,4.45,28.38C88.27,1390.5,87.15,1400.07,83.43,1409.11Z"/><path class="cls-1" d="M195.22,1355.93c-11.76-11.23-27.53-11.26-39.41-.18-1.7,1.59-2.6,4.39-5.63,4.64-.66-10.76-.66-10.76-11.23-10.72h-1c-9.2,0-8.54-.63-8.54,8.69q0,61.37,0,122.73c0,2.3.37,4.61.57,6.91h22c-1.48-7.92-.48-15.9-.62-23.86-.15-7.7.14-15.41.24-23.12l2.16-.74a25.48,25.48,0,0,0,2.84,3.9c12.18,11.34,27.28,11,39-.75a42.11,42.11,0,0,0,10.56-17.83,90.76,90.76,0,0,0,.91-49.22A42.12,42.12,0,0,0,195.22,1355.93Zm-10.59,62.38c-2.55,6.53-6.59,11.6-14.36,11.91-7.29.29-12.18-3.82-14.81-9.89-6.06-14-6.42-28.42-.69-42.57,2.48-6.12,7.48-10.1,14.74-10s11.5,4.6,14.39,10.56c3.1,6.41,3.48,13.43,3.83,19.44C187.55,1405.39,187.06,1412,184.63,1418.31Z"/><path class="cls-1" d="M3320.91,1390.08c-5.67-1.92-11.45-3.49-17.14-5.35-3.47-1.13-7.09-2.1-10.22-3.88-5.08-2.89-5-8-.2-11.12,6.75-4.36,20.18-2.41,24.17,4.52,2.62,4.55,5.29,5,9.51,3.76a61.53,61.53,0,0,1,8.76-2c4.38-.57,4.47-3,3.31-6.37-3.58-10.44-9.93-18-21.1-20.62a57.32,57.32,0,0,0-25.76-.28c-14.09,3.13-22.16,13.35-22.71,27.77-.58,15.14,4.74,23.54,18.71,29.62,8.58,3.74,17.64,5.93,26.57,8.55,3.39,1,6.19,3,6.41,6.8.22,4-1.78,6.91-5.32,8.87-8.88,4.9-21.39,1.78-25.69-7.45-2.27-4.88-4.91-5.36-9.25-4.36-3.56.82-7.21,1.26-10.8,2-2.79.55-3.7,1.93-2.8,5,3.12,10.43,9,18.43,19,23.11,21.86,10.17,45,2.44,55.59-18.62v-22C3338.17,1398.26,3330.27,1393.26,3320.91,1390.08Z"/><path class="cls-1" d="M2092.73,15.66q-50.49,0-101,0c-13.74,0-13.74,0-13.74,13.58q0,450,0,899.94c0,3.68.73,7.55-1.13,12.32-2.16-3.75-3.68-6.3-5.1-8.89q-55.82-101.55-111.59-203.11Q1666.59,377.12,1473.24,24.6c-3.73-6.8-7.6-9.24-15.36-9.14-36.33.46-72.66.15-109,.24-14.93,0-12.6-1.76-12.6,12.71q-.07,578.44,0,1156.91c0,1.67,0,3.33,0,5,.11,7.9.11,8,8.35,8q51,0,102,0c13.34,0,13.35,0,13.35-13V273.81l2-.22c2,3.47,4,6.92,5.88,10.41q248.25,452.85,496.33,905.78c3.48,6.35,7.09,8.84,14.51,8.75,36.33-.44,72.66-.2,109-.2,12.94,0,12.94,0,12.94-13.33V29.08c0-2,0-4,0-6C2100.69,15.22,2100.56,15.65,2092.73,15.66Z"/><path class="cls-1" d="M2836.56,1102.7c34.41-46.22,54.11-99,67.32-154.54,1.55-6.47,1.22-6.85-5-7.81-36.52-5.62-73.09-11-109.55-16.94-6-1-7.74,1.18-8.85,5.91-.23,1-.44,1.95-.75,2.9-11.32,34.66-25.5,67.94-47.41,97.44-17.16,23.1-37.54,42.93-64.23,54.18-65.43,27.6-127.07,19.92-183.1-24-37.84-29.65-61.63-69.34-77-114.44-14-41-20.16-83.38-23.37-126.32-1-13.53-1.17-11.33,10.45-11.34q125.47-.09,251,0,126.48,0,253,0c9.27,0,9.39,1.43,9.8-8.81,2.44-61.15-1.19-121.88-12.85-182-9.5-49-25-95.93-50.13-139.32a338.38,338.38,0,0,0-76.86-91.31c-58.22-48.38-125.48-67.95-200.62-62.94-84.27,5.61-151.86,43-206.13,106.51-32.29,37.76-54.72,80.92-70.18,127.89-16.76,50.93-25.25,103.37-28.52,156.76-4.26,69.75-2.73,139.2,10.52,208,9.7,50.37,25.38,98.65,52,142.79,36.16,59.88,84.9,105.82,150.64,131.82,56.22,22.24,114.6,26.06,173.93,17.13Q2766.4,1196.81,2836.56,1102.7ZM2391.72,682.51c4.09-63.45,19.44-123,61-173.17,24.79-30,54.81-52.82,93.19-62.1,55.82-13.5,107.21-4,152.08,33.17,35.56,29.41,57.91,67.34,69.92,111.65,8.39,31,13.06,62.52,15.39,95-3.63,2-7,1.19-10.28,1.19q-185.49.08-371,0a46.31,46.31,0,0,0-5,0C2392.43,688.88,2391.45,686.64,2391.72,682.51Z"/><path class="cls-1" d="M3003.19,454.4c22.33,0,44.66-.09,67,0,13.67.06,12-1.93,12,12.36q.06,244.46.08,488.93c0,44.66,1.28,89.27,7.69,133.6,6.11,42.28,25.52,76,62.79,98.23,20.1,12,42.27,17.61,65.28,20.37,38.3,4.6,75.72-.63,112.86-9.68,4.85-1.19,6.47-2.7,5.7-8-2.61-18.12-4.53-36.34-6.8-54.52-2.56-20.48-5.3-41-7.74-61.44-.49-4.1-1.46-6.08-6.16-5a94.31,94.31,0,0,1-13.85,1.87c-15.9,1.33-31.72,3.7-47.81,1.28-27.08-4.07-43.14-19.06-48.35-45.78-3.77-19.4-4.54-39-4.59-58.7q-.32-121-.25-242-.06-130,0-260c0-13.47-.57-11.59,12-11.61,33-.06,66,0,99,0,9.36,0,9.42-.06,9.43-9q0-47.49,0-95c0-8.61-.08-8.69-8.72-8.7-33.32,0-66.65,0-100,0-12.5,0-11.65,1.76-11.65-11.88q0-137.49,0-275v-13c-4.34,3-7.09,4.78-9.73,6.72-33.59,24.62-67.05,49.41-100.85,73.75-6,4.34-8.48,8.68-8.43,16.28.34,64.65.18,129.31.2,194,0,10.15.12,9.17-9.24,9.17h-69c-9.31,0-8.85-.72-8.85,8.46v96C2995.14,454.46,2994.54,454.41,3003.19,454.4Z"/><path class="cls-1" d="M2068.44,1375.31c13.67-12.54,17.74-27.34,12.1-42.53-6-16.26-18.76-21.21-34.77-21.07-15.31.14-30.62.16-45.92-.14-5.06-.1-7,1.12-7,6.61q.3,62.89,0,125.79c0,4.6,1.13,6.55,6.11,6.45,18.63-.35,37.27-.32,55.9-.47,14.3-.12,23.68-7.62,29.46-20.12C2093.91,1409.14,2088.32,1389.49,2068.44,1375.31Zm-39.16-39.6h5v.34c4.65,0,9.33-.32,13.95.07,7.44.64,11.32,4.82,12,12.16.73,8.11-2.29,13.48-9,15.82-5.79,2-11.85,1.59-17.8,1.44-5.53-.13-12.42,2.52-16.22-1.44-3.38-3.53-1-10.17-1.08-15.42C2015.88,1335.71,2016,1335.71,2029.28,1335.71Zm35.06,73.7c-.33,10.6-5.25,15.92-15.7,16.58-4.63.29-9.28,0-13.92,0v.27c-4.65,0-9.29-.08-13.93,0-3.2.08-4.88-.94-4.82-4.5.14-9.28.09-18.57,0-27.86,0-2.85,1.09-4.3,4-4.24,10,.18,19.94-.22,29.82.66S2064.69,1398.3,2064.34,1409.41Z"/><path class="cls-1" d="M1068.59,1326.11c0-15,0-14.68-14.8-14.6-5.63,0-6.49,2.23-6.46,7,.17,24,.08,47.94.08,71.91v9.78c-4.05-1.23-4.22-4.28-5.32-6.45-11.71-23.14-23.91-46.06-34.63-69.66-4.57-10.07-10.15-13.82-21-12.68-9.56,1-8.24.67-8.24,9.3,0,38.62-.13,77.24,0,115.85.08,15.81-3.32,13.62,14.49,13.76,6.94.05,7.07-.16,7.09-7.19.06-24,0-47.94,0-71.91,0-2.4.29-4.79.58-9.46,2.7,5.18,4.24,8.06,5.71,11,11,21.66,22.55,43,32.61,65.09,4.56,10,10,14,21,12.77,9.67-1.12,8.8.48,8.8-9.66Q1068.61,1383.54,1068.59,1326.11Z"/><path class="cls-1" d="M2186.39,1426.35c-16.33-.06-32.66-.18-49,.07-4.78.08-6.46-1.37-6.26-6.22.34-8.31.3-16.66,0-25-.15-4.53,1.74-5.64,5.88-5.57,11.66.19,23.33.06,35,.06,16.63,0,16.63,0,16.16-16.22-.19-7-.19-7.09-7.22-7.13-14.67-.09-29.33-.14-44,0-4.18,0-6-1.14-5.82-5.62a182.06,182.06,0,0,0,0-19c-.28-4.91,1.6-6.28,6.31-6.18,12.66.27,25.33.09,38,.09,17.58,0,17.39,0,17.18-17.35-.06-5.08-1.33-6.87-6.68-6.81-23.32.27-46.65.08-70,.14-7.8,0-7.86.12-7.88,8.42q-.06,30.48,0,61c0,20.66-.05,41.32,0,62,0,7.07.14,7.22,7,7.25,21.33.08,42.65,0,64,0,15.73,0,15.73.09,15.46-15.77C2194.46,1426.45,2194.46,1426.37,2186.39,1426.35Z"/><path class="cls-1" d="M2427.65,1370.3c-7.57-3.53-15.6-5.73-23.55-8.2-5.09-1.58-10.26-3.09-14.58-6.32-6-4.5-6.74-11.22-2.12-16.53,8.41-9.64,29.83-6.5,35,5.13,3.51,7.91,3.51,7.92,11.75,7.7q5-.13,10-.34c2.38-.1,3.39-1.25,3.45-3.76.39-15.22-10.72-30.78-25.71-35.91-7.74-2.65-15.72-2.71-23.72-2.2-24.22,1.55-39.76,22-35.07,45.85,2.86,14.59,11,24.8,24.92,30,9.34,3.51,18.88,6.47,28.31,9.73,6.89,2.39,11.45,6.7,11.51,14.52a17.35,17.35,0,0,1-12.13,16.63c-11.11,3.8-26.49,2.86-32.43-14.3-.76-2.19-1.2-4.49-1.86-6.71-.52-1.72-1.55-3-3.54-2.77-5.29.66-10.57,1.36-15.84,2.14-2.78.42-3.76,1.93-3.32,4.91,4.54,30.87,22.23,43,46.24,42.55,3.66-.21,7.35-.18,11-.67,17.18-2.29,29.77-13.43,33.57-29.85a60.5,60.5,0,0,0,.86-18.9C2449,1387.76,2441.57,1376.79,2427.65,1370.3Z"/><path class="cls-1" d="M2274.12,1368.79c-6.83-2.61-13.9-4.57-20.84-6.89-4.73-1.59-9.59-3-13.64-6-6-4.5-6.88-11.16-2.34-16.5,8.26-9.71,29.83-6.71,35,4.87,3.62,8.06,3.62,8.07,12.64,7.81,2.67-.07,5.33-.23,8-.22,3.23,0,4.75-1.06,4.57-4.7-1-19.93-15.3-35.21-35.27-37.08a90.61,90.61,0,0,0-14-.17c-24.26,1.48-39.88,21.86-35.26,45.69,2.83,14.59,10.91,24.86,24.82,30.13,9.64,3.65,19.5,6.69,29.23,10.11,6.15,2.16,10.28,6.22,10.67,13,.42,7.37-3,12.88-9.2,16.53-13.09,7.64-28.94,2-35-11.94-1.44-3.35-.53-8.18-3.8-10-3.47-1.89-7.72.64-11.69.67a36.41,36.41,0,0,0-5.93.8c-2.68.46-3.94,1.72-3.5,4.8,4.44,30.49,21.77,43.15,46.12,42.7,3.66-.2,7.34-.18,11-.65,16.87-2.19,29-12.68,33.43-28.76,1.42-5.19,1.52-10.53,1.43-15.87C2300.29,1388.51,2291.65,1375.48,2274.12,1368.79Z"/><path class="cls-1" d="M1937.07,1311.76c-14.3.37-28.63-.11-43-.06-7,0-7.1.16-7.13,7.22-.07,20.64,0,41.29,0,61.94q0,26.48,0,52.94c0,17.28,0,17.09,16.86,16.65,4.71-.12,6.39-1.36,6.28-6.25-.3-13,.07-26-.19-39-.1-5,1.24-7.17,6.68-7a197.3,197.3,0,0,0,24-.52c16.5-1.44,26.8-10.23,31.49-26.14a62,62,0,0,0,1.13-29.66C1970,1325.52,1959.74,1311.18,1937.07,1311.76Zm-.49,61.7c-7.49,1-15.19.62-22.8.83-3.08.09-3.81-1.75-3.79-4.45.06-9.93.1-19.86,0-29.79,0-3.67,1.91-4.44,5-4.34s6,0,11,0c1.58.07,5.24,0,8.85.43,9.68,1.08,15,7.18,15.49,17.36C1950.75,1364.37,1945.87,1372.17,1936.58,1373.46Z"/><path class="cls-1" d="M1330.68,1349.63c-4.35-.41-7,.88-7.33,5.66a36.63,36.63,0,0,1-1.4,5.81l-12.39,51.29c-4.77-16.53-8.31-33.07-11.79-49.62-2.82-13.41-2.8-12.94-16.3-13.31-6.33-.18-7.84,2.6-8.91,7.75-3.35,16.28-7,32.49-10.58,48.72-.4,1.85-.1,4.14-3.09,5-3.53-14.77-7.1-29.5-10.56-44.25-4.37-18.58-4.33-18.59-23.23-16.5a2.63,2.63,0,0,0-.88.45c-.46,2,.19,3.92.7,5.86q10.68,40.48,21.29,81c3.46,13.21,3.44,13,16.93,13,5.17,0,7.82-1.25,8.77-6.74,1.69-9.82,3.87-19.57,6.28-29.24,2.07-8.28,2.61-17,6.87-26,3.79,16.67,7.35,32.1,10.79,47.56,3.36,15.15,3.3,15,18.3,14.45,4-.14,5.89-1.49,6.8-5.34,1.86-7.75,4.08-15.41,6.12-23.12,6.29-23.74,12.56-47.48,18.9-71.46C1340.58,1348.94,1335.57,1350.09,1330.68,1349.63Z"/><path class="cls-1" d="M895.68,1311.52c-5.13.14-6.3,2.1-5.89,6.56.25,2.64.05,5.32.05,8v32.37c-3.48-.1-4.28-2.23-5.72-3.45-12.36-10.47-28-9.89-39.5,1.53A39.93,39.93,0,0,0,834,1375.39a98.59,98.59,0,0,0-.6,45.45,44.08,44.08,0,0,0,13.38,24c11,10.05,25.87,10.08,37.1.35,2.17-1.88,3.26-5,7.32-6,.46,11.29.46,11.29,11,11.24h1c8.55-.1,8.61-.1,8.62-8.72q0-57.4,0-114.8C911.79,1310.87,911.79,1311.11,895.68,1311.52Zm-8.9,108.22c-2.4,6.78-6.64,12.39-15,12.48-7.19.09-12.69-4.49-15.8-12.86-2.38-6.37-2.19-13-2.31-17.6-.15-9,0-16,2.87-22.55,3.34-7.66,9-11.79,15.83-11.42,7.72.41,12.06,5.37,14.3,12C891.19,1393,891.46,1406.51,886.78,1419.74Z"/><path class="cls-1" d="M3102.52,1327c0-16.8,0-16.67-16.86-15.46-3.92.28-5.2,1.69-5.11,5.44.17,7.32,0,14.65,0,22v20.9c-7.28-6.53-12.89-11.58-21.11-12.17-14.7-1.07-27.67,7.54-33.13,23.55-6.3,18.5-6.08,37.3-.14,55.93a40.39,40.39,0,0,0,10.58,16.71c11.46,11.15,26.78,11.46,38.51.69,1.88-1.73,3.51-3.73,6.26-6.69.38,2.5.54,3.15.57,3.81.4,8.57.39,8.57,8.61,8.66h2c10.78-.11,9.76,1.12,9.77-9.47Q3102.56,1384,3102.52,1327Zm-25.47,94.64c-3,5.8-6.91,10.66-14.32,10.56-7.64-.11-12.53-4.46-14.89-11.16-4.85-13.85-5.32-28-.09-41.84,3-8,8.83-11.83,15.68-11.46,7.73.42,11.68,5.54,14.38,12s2.6,13.61,2.85,20.28C3080.52,1407.61,3080.48,1415,3077.05,1421.68Z"/><path class="cls-1" d="M713.38,1311.67c-8.69.09-8.74.09-8.77,8.63-.05,12.59,0,25.18,0,39.86-7.38-7.08-13.13-11.91-21.39-12.45-14.68-1-27.55,7.78-33,23.84-6.22,18.52-6,37.33,0,55.93a40,40,0,0,0,11.42,17.33c11.08,10.11,25.84,10.24,37.06.29,2.14-1.9,4.13-4,6.29-6.06.5.94,1,1.44,1,2,.66,9.35.65,9.35,9.94,9.37,1,0,2,0,3,0,7.37-.14,7.47-.14,7.48-7.76q.06-58.94,0-117.87C726.52,1311.52,726.52,1311.52,713.38,1311.67Zm-11.79,108.8c-2.87,6.22-6.69,11.57-14.53,11.77-6.88.18-12.77-3.78-15.47-11.77-4.56-13.54-5-27.38,0-40.93,2.95-8,8.75-12,15.5-11.77,8.19.33,12.19,5.75,14.93,12.59,2.51,6.31,2.29,13,2.65,19.15C704.51,1406.93,704.59,1414,701.59,1420.47Z"/><path class="cls-1" d="M2863,1396.09a199.15,199.15,0,0,0-1.18-23.95c-1.39-10.46-6.23-19.17-16.85-22.85s-20.32-1.86-28.82,5.74c-1.62,1.45-2.66,3.76-6.26,4.2v-33.71c0-14.16,0-14.16-14.48-13.85-7.35.15-7.45.15-7.46,7.81q0,58,0,116c0,15.52,0,15.29,15.36,15.07,5.23-.08,6.81-1.69,6.7-6.89-.31-15.32-.12-30.65-.09-46,0-5.67.26-11.31,1.91-16.82,2.82-9.4,8.75-13.9,17.4-13,7.33.75,10.29,4.61,11.22,15,1.58,17.63.61,35.3.78,53,.15,15.38,0,15.17,15.73,14.72,4.88-.13,6.25-1.75,6.19-6.44C2862.89,1428.08,2863.15,1412.08,2863,1396.09Z"/><path class="cls-1" d="M1564.09,1393c-2.15-4.4-2.31-7.69,1.06-11.62,5.18-6.06,9.89-12.54,14.53-19,2.77-3.87,6.68-7.12,8.22-12.69-3.48,0-6.19.4-8.74-.07-12.38-2.27-20.7,2.4-26.59,13.49-3.58,6.77-8.85,12.64-13.86,19.6-2.16-4.72-1.41-8.06-1.43-11.29-.09-15.31.08-30.62-.07-45.92-.16-15.85,2.51-13.64-13.56-13.78-8.25-.08-8.31.07-8.32,8.9q0,60.4,0,120.81c0,1.33.08,2.66,0,4-.43,7,5,5.4,8.24,4.77,4.64-.91,12.22,4.69,13.5-4.6a75.28,75.28,0,0,0,.06-17.94c-1-9.25,3.68-15.24,10.3-21.33,4.41,9.48,8.5,18.19,12.54,26.93,8.55,18.46,8.55,18.47,29.68,16.57.8-3-.77-4.63-1.58-6.36C1580.15,1426.6,1572.28,1409.73,1564.09,1393Z"/><path class="cls-1" d="M2661.39,1395.84c-3.39-6.51-3.54-11.18,1.47-16.77,5.54-6.17,10.25-13.1,15.14-19.82,2-2.79,5.09-5.08,5.69-9.58-6.21,0-11.84.33-17.42-.1s-9.21,1.39-12.33,6.16c-5.8,8.86-12.26,17.29-19.13,26.85-2.34-4.53-1.5-7.87-1.52-11.07-.11-15.31.09-30.62-.09-45.93-.19-16,2.86-13.73-14.44-13.88-7.3-.06-7.41.12-7.42,7.79q-.06,57.91,0,115.82c0,16.88,0,16.79,17.18,15.15,3.28-.32,4.81-1.37,4.75-4.77-.1-6,.48-12-.12-18-.94-9.25,3.62-15.34,10.19-21.36,1.75,3.6,3.24,6.56,4.64,9.56q6.75,14.46,13.43,28.94c1.26,2.71,2.1,5.63,6.07,5.53,6.14-.16,12.28-.05,18.41-.05.24-4.5-1.82-6.89-3-9.52C2675.81,1425.78,2669.07,1410.56,2661.39,1395.84Z"/><path class="cls-1" d="M2589.83,1408q0-13.5,0-27a74.5,74.5,0,0,0-1.37-12.89c-1.68-9.57-7.44-15.28-16.31-18.37-7.77-2.7-15.79-2.32-23.75-1.77-12.46.85-21.11,7.23-26,18.79-3.86,9.22-3.72,9.55,5.87,11.49,2,.4,3.89.9,5.83,1.37,3.32.8,5.11,0,6.88-3.52,4.1-8,12-10.58,20.14-7.53,5,1.86,6.89,5.78,7.09,11.94.18,5.4-3.87,5.7-7.13,6.71-7.3,2.26-14.8,3.87-22.07,6.21-15.57,5-22.05,14.42-21.72,30.53.23,11.16,4.14,20.49,14.45,25.52,10.71,5.22,21.31,3.8,31.14-3.11,2.26-1.58,3.88-4.3,6.86-4.94,3.6,8.94,3.6,9,12.82,8.92,3.61,0,7.32.77,11.47-1.1C2588.86,1435.94,2589.84,1421.92,2589.83,1408Zm-22.09,10.48c-.67,6.11-4.22,10.35-9.51,13.12-7.13,3.73-14.72,1.45-17.73-5.16-3.2-7-.66-14.07,6.68-17.18a78.15,78.15,0,0,1,20.51-5.63A49.92,49.92,0,0,1,2567.74,1418.47Z"/><path class="cls-1" d="M1654.08,1364.18a59.4,59.4,0,0,0-10.2,34.88c-.11,11.84,1.68,23.26,7.89,33.58,15.78,26.26,51.49,26.73,67.94.93,12.7-19.9,11.85-49.6-1-69.17C1703.77,1341.61,1668.59,1342.39,1654.08,1364.18Zm48.46,55.28c-3.39,6.11-8,10.6-15.52,10.8-8,.21-13.49-4-16.62-10.63a44.6,44.6,0,0,1,.1-39.46c3-6.26,8.14-10.41,15.72-10.43s12.36,4.17,15.93,10.19c3.69,6.23,4.37,13.15,4.14,19.53C1706.42,1406.85,1705.86,1413.45,1702.54,1419.46Z"/><path class="cls-1" d="M1362,1364.47c-7.27,10.46-10.37,22.2-10.08,34.89-.07,11.84,1.76,23.26,8,33.54,15.73,25.77,50.94,26.4,67.44,1.27,12.9-19.64,12.75-49.68-.33-69.14C1411.3,1341.64,1378.05,1341.32,1362,1364.47Zm49.13,53.93c-3.28,6.53-7.87,11.55-15.88,11.84-8.39.29-14-4.22-17.16-11.33a45,45,0,0,1-.07-37.67c3-6.74,8.06-11.37,16-11.48,8.43-.11,13.42,4.89,17,11.76,3,5.76,3.46,12.06,3.29,18.43C1414.45,1406.31,1414,1412.62,1411.09,1418.4Z"/><path class="cls-1" d="M2889.18,1367.22c-11.67,21.16-11.81,43.11-.92,64.11,14.49,27.94,52.2,28.47,68.77,1.71,6.3-10.17,9-21.39,9-35.07.12-9.82-2.81-20.54-8.47-30.67C2942.32,1340.05,2903.27,1341.67,2889.18,1367.22Zm49.84,53c-7,13.66-23.14,13.54-31.17.4-3.1-5.08-4.49-11.73-4.4-21.16.06-6.68.49-13.32,4-19.27s8.2-10.4,15.76-10.45,12.84,4,15.9,10.19C2945.61,1393.21,2945.74,1407.11,2939,1420.21Z"/><path class="cls-1" d="M289.73,1366c-6.22-11.27-15.61-17.84-28.85-18.3-16-.55-27.59,6.44-34.31,22.3-8.27,19.49-8.59,39.55-.73,59.25,6.82,17.12,19.78,24.38,38.85,23,15.72-1.17,26.67-11.43,31.12-29.75-4.84-.9-9.79-1.38-14.45-2.81-4.9-1.49-7.15,0-8.85,4.64-3.65,10-16.75,10.75-23.63,2.14a23.25,23.25,0,0,1-5.16-17.67c3.18-1.86,6.58-1,9.82-1,12.64-.11,25.29-.19,37.93,0,4.6.08,6.63-1.16,6.4-6.16C297.28,1389.23,295.83,1377.05,289.73,1366Zm-17.53,24.33c-4.29,0-8.58,0-12.87,0v0c-3,0-5.94.05-8.91,0-6.93-.15-7.47-.79-6.36-7.26a20.45,20.45,0,0,1,5.05-10.56C255,1366,264,1366,270,1372.42c3.57,3.79,4.81,8.55,5.66,13.47C276.17,1388.62,275.34,1390.35,272.2,1390.32Z"/><path class="cls-1" d="M530,1370.59c-5.83-13.57-15.47-22.06-30.94-22.93-16-.89-26.62,6.81-33.49,20.44-6.64,13.16-8.07,27.27-6.51,41.78,1.07,10,3.48,19.63,9.47,28,11.57,16.2,36.88,19.8,52.37,7.23a34.77,34.77,0,0,0,12.93-22.68c-5.23-1-9.88-1.47-14.31-2.76-4.7-1.37-7.21-.39-8.91,4.48-3.57,10.21-17.27,11.06-24.23,1.57-3.69-5-5.27-10.63-4.51-18h10.6c12.31,0,24.62-.13,36.93.07,4.45.07,6.75-.88,6.53-6C535.42,1391,534.21,1380.5,530,1370.59Zm-19.86,19.71c-4.29,0-8.58,0-12.87,0v0c-2.64,0-5.28,0-7.92,0-7.93-.11-8.71-1-7.07-8.34,2.1-9.39,9.27-15.2,17.41-14.13,7.6,1,14.45,10.41,14.17,19.12C513.73,1389.72,512.26,1390.29,510.09,1390.3Z"/><path class="cls-1" d="M2733.58,1347.64c-14.14-.64-24.78,5.26-31.27,17.37-11.94,22.25-12.14,45.41-1.61,68.09,7.08,15.25,21.27,21.32,39.27,18.91,14.55-2,25.24-12.83,28.66-29.55-4.54-.87-9.14-1.52-13.6-2.67-4.83-1.25-7.31-.36-9.76,4.78-4.62,9.69-15.85,10.47-23,2.32a24.08,24.08,0,0,1-5.9-18.17c3.55-1.67,6.92-1,10.19-1,12.64-.09,25.29-.06,37.93,0,3.15,0,6,.12,6-4.4,0-12.77-1.34-25.28-7.48-36.74C2756.79,1354.88,2747.23,1348.25,2733.58,1347.64Zm15,39.48c-.21,2.71-1.69,3.2-3.86,3.2H2732.8v0c-2.64,0-5.29,0-7.93,0-9.36-.08-9.76-.61-7.22-9.34,2.81-9.67,9.87-14.74,18.07-13C2743,1369.56,2749.17,1378.94,2748.55,1387.12Z"/><path class="cls-1" d="M3127.69,1362.45c-12.51,19.11-13.74,54.1-1.59,73.37,8.47,13.43,23.23,19.31,39.93,15.9,13.65-2.78,23.53-13.55,26.53-29.3-4.87-.91-9.83-1.51-14.59-2.8-4.34-1.18-6.62-.25-8.19,4.19-4,11.17-18.59,11.46-25.36.65a26.12,26.12,0,0,1-4.1-15.72c3.71-1.67,7.08-1,10.36-1,12.64-.09,25.28-.07,37.92,0,3.21,0,6,0,6-4.48,0-13.81-1.8-27.14-9-39.35C3173.29,1342.92,3141.17,1341.86,3127.69,1362.45Zm13.08,27.39c.56-14.51,6.54-22.4,16.35-22.09,9.47.3,15,8.29,15,22.09Z"/><path class="cls-1" d="M781.62,1347.64c-15.06-.69-25.79,6.09-32.29,19.06-10.76,21.5-10.82,43.74-1.11,65.48,7.08,15.85,21.32,22.27,39.72,19.83,14.54-1.93,25.18-12.73,28.73-29.55-4.54-.87-9.13-1.53-13.61-2.66-4.78-1.22-7.31-.46-9.78,4.74-4.59,9.71-15.82,10.51-23,2.38a24,24,0,0,1-5.91-18.19c3.5-1.69,6.88-1,10.15-1,12.64-.09,25.28-.13,37.92,0,3.95,0,6.21-.7,6.12-5.4-.23-11.74-1.4-23.25-6.62-34C805.82,1355.77,796.16,1348.31,781.62,1347.64Zm-16.71,42.22c.21-14.21,6.24-22.34,16.07-22.12,9.47.21,15,8.06,15.18,22.12Z"/><path class="cls-1" d="M1156.89,1370.38c-6-13.53-15.62-21.93-31.09-22.73-16-.82-26.91,6.87-33.34,20.63-9.48,20.29-9.64,41.34-1.19,62,6.88,16.79,20.52,23.79,39.49,21.89,15.09-1.51,25.93-12,30-29.62-4.52-.87-9.07-1.6-13.54-2.66s-7.35-.8-9.89,4.53c-4.83,10.17-16.38,10.76-23.55,1.92a24.17,24.17,0,0,1-5.4-17.53c3.32-1.76,6.71-1,10-1,12.64-.09,25.28-.22,37.91.06,4.81.1,6.43-1.45,6.3-6.26C1162.31,1390.83,1161.25,1380.3,1156.89,1370.38Zm-48.26,19.19c1-14.46,6.45-21.72,15.85-21.82s15.13,7.36,15.81,21.82Z"/><path class="cls-1" d="M388.46,1369.81c-3.9-24.36-31.17-27.47-44.77-15.58-2.44,2.12-4.71,4.43-7.11,6.71-.62-.92-1.21-1.4-1.27-1.93-1-9.34-1-9.34-10.17-9.35-1,0-2,0-3,0-7.41.17-7.52.17-7.53,7.87q-.08,42.48,0,85c0,7.78.13,8,8.53,7.86,16-.19,13,2.21,13.38-12.85.38-17.3-.88-34.64,1.18-51.92.7-5.89,2.69-11,7.47-14.68,8.33-6.44,18.14-3.29,21.35,6.7a38.78,38.78,0,0,1,1.4,11.86q.12,23,.12,46c0,15.51,0,15.28,15.38,15.08,5.25-.07,6.76-1.7,6.69-6.87-.3-20.65-.1-41.31-.27-62A79.67,79.67,0,0,0,388.46,1369.81Z"/><path class="cls-1" d="M628.1,1373.6c-.92-11.49-5.9-20.71-17.36-24.46-11.27-3.7-21.61-1.32-30.38,7.1-1.73,1.66-2.62,4.78-6.32,4.31,0-1.71,0-3.35,0-5s-.18-3.26-.27-4.9c-4.38-1.84-8.76-.91-13-.93-6.77,0-6.89.13-6.9,7.27-.06,26.62,0,53.25,0,79.87,0,13.72,0,13.72,13.72,13.52,8.12-.12,8.16-.12,8.22-8.13.12-17,.14-33.94.29-50.91,0-6.07,1-12,4.72-17,3.89-5.26,9.28-7.73,15.75-6.21s9.05,6.45,9.55,12.54c.55,6.63.91,13.29,1,19.94.16,11.31,0,22.63,0,33.94,0,17.46.42,17.74,17.43,15.93,3.49-.37,4.53-1.84,4.48-5C628.66,1421.5,630,1397.52,628.1,1373.6Z"/><path class="cls-1" d="M1778.49,1309.85a54.21,54.21,0,0,0-11,.28c-9.28,1.37-15.59,7.48-17.68,16.66a70.68,70.68,0,0,0-1.51,17.88c.09,3.07-.7,4.74-4.35,5.1-7.7.75-7.67,1-7.74,8.5-.1,11.06-.1,11.06,12.08,12v64.58c0,16.84,0,16.71,16.81,15.68,3.87-.23,5.28-1.47,5.11-5.29-.22-5,0-10,0-15,0-17.33,0-34.66,0-52,0-8.24.08-8.24,7.85-8.49h1c7.16-.24,7.3-.24,7.33-7,0-3.94,1.49-8.52-.78-11.68s-6.85-1.22-10.35-1.25c-4.08,0-5-1.82-5.12-5.45-.4-11.59,2.28-14.92,13.22-14.26,4.62.28,6.28-.6,7-5.48C1792.28,1311.79,1791.69,1310.62,1778.49,1309.85Z"/><path class="cls-1" d="M2507.48,1429c-13.42,2.16-14.4,1.48-14.66-12.12s.06-27.33-.23-41c-.11-4.85,1.56-6.27,6.31-6.33,8.86-.12,8.86-.42,8.89-9.43a25.28,25.28,0,0,1,0-4c.87-5.54-1.85-6.66-6.84-6.64-8.15,0-8.2-.28-8.29-8.09-.07-6.66.08-13.33-.07-20,0-2.06,1.15-4.67-2-6.32A63.22,63.22,0,0,1,2485,1319c-9.95,5.47-17.14,12.35-14.37,25.18.71,3.33-.56,6-4.82,5.51-4.87-.54-5.41,2.45-5.21,6.23.16,3,.12,6,0,9-.08,3.28,1.24,5.15,4.69,4.79,4.65-.49,5.49,2,5.44,6-.16,12-.19,24,0,36,.11,7.65.37,15.34,1.17,22.95,1,9.3,6.35,15.68,14.24,17.18a39.81,39.81,0,0,0,16.85-.64c5.12-1.24,7.17-3.82,5.85-9.3C2507.92,1437.72,2507.92,1433.33,2507.48,1429Z"/><path class="cls-1" d="M1218,1429.05c-12.79,2.28-13.85,1.53-14-10.68-.15-14,.14-28-.19-42-.13-5.2,1.44-6.88,6.7-6.81,7.93.11,8-.27,8-8.22,0-2.66,0-5.33,0-8,0-2.39-.92-3.77-3.5-3.69-1.67,0-3.36-.19-5,0-4.93.62-6.34-1.64-6.2-6.32.27-9.24.08-18.5.08-29.5-3.4,2.17-5,3.3-6.71,4.27-10.35,5.83-18.43,12.87-15.34,26.56.68,3-.74,5.37-4.35,4.9-5.47-.7-5.92,2.49-5.64,6.65.2,3,.09,6,0,9,0,2.71.81,4.79,3.9,4.39,6-.77,6.22,2.74,6.19,7.23-.1,16,0,32,.07,48a46.28,46.28,0,0,0,2,14.79c1.79,5.33,5.08,9.55,10.47,11.32,7.52,2.47,15.08,1.79,22.51-.88a4.1,4.1,0,0,0,3.07-4.5C1219.69,1440,1220,1434.34,1218,1429.05Z"/><path class="cls-1" d="M1865.56,1326.35c0-14.87,0-14.87-14.68-14.69-8.55.1-8.62.1-8.62,8.7q0,57.39,0,114.79c0,15.65,0,15.65,16.13,15.19,7-.2,7.14-.2,7.16-7.2.07-20.63,0-41.26,0-61.89Z"/><path class="cls-1" d="M3004.78,1326.08c0-14.87,0-14.87-14.87-14.42-6.88.2-7,.2-7,7.36-.08,20.33,0,40.65,0,61,0,19.33-.09,38.65,0,58,.08,14.32-2,12.28,13,12.42,9.8.08,8.9.71,8.91-9.36Q3004.8,1383.54,3004.78,1326.08Z"/><path class="cls-1" d="M1501.12,1349.42a29.67,29.67,0,0,0-6.72-1.68c-9.44-1.29-14.61,4.55-19.94,13.54-1.53-11.64-1.53-11.66-11.61-11.61-10.35,0-9.89-1.17-9.89,9.46v76.77c0,14.9,0,14.9,14.86,14.5,6.87-.19,7-.19,7-7.24.06-16.28-.07-32.56.93-48.83.31-5,1-10,3.1-14.52,3-6.23,8.17-8.36,14.78-6.25,1.85.59,3.62,1.48,5.65,2.33,3-5.8,3.5-12.24,5.77-18.07C1506.81,1353.33,1505.3,1351,1501.12,1349.42Z"/><path class="cls-1" d="M3253.53,1347.86c-6.8-.9-12.41.93-16.67,6.6-1.28,1.7-1.69,4.44-4.55,4.72-1.43-9.53-1.43-9.53-11.33-9.52-1,0-2,0-3,0-6.85.2-7,.2-7,7.34-.06,26.26,0,52.52,0,78.77,0,15,0,15,14.73,14.63,7-.19,7.12-.19,7.15-7.11.07-16.28-.07-32.57.92-48.84.31-5,1-10,3-14.53,2.33-5.13,7.14-8.15,11.86-7.24,2.88.56,5.6,2,8.58,3.1,2.81-4.58,3.37-10,4.84-15C3264.75,1351.58,3263,1349.12,3253.53,1347.86Z"/><path class="cls-1" d="M448.33,1391.59c0-.34,0-.67,0-1,.12-2.83-1-4.29-4.07-4.28-11.3.06-22.6.1-33.91,0-3.44,0-4.73,1.41-4.68,4.72.1,5.65.19,11.31,0,17-.17,4.18,1.19,6.07,5.65,5.83,5.3-.3,10.63-.07,17.06-.07,5.71-1,14.71,3.3,18.87-1.75C451.09,1407.24,448,1398.53,448.33,1391.59Z"/><path class="cls-2" d="M1208.55,578.07c-2.9-38.89-10-76.87-20.22-114.43-10.51-38.5-25-75.47-42.18-111.33a679.64,679.64,0,0,0-49-85.48c-28.12-41.74-60-80.18-96.81-114.61a582.4,582.4,0,0,0-89.93-69.08A537,537,0,0,0,789.68,27.27,552.75,552.75,0,0,0,705.39,7.56c-14.45-2.23-29-3.1-43.45-5.34,0,0,0,0,0,0h0L662,0H588a3.9,3.9,0,0,1,.11,1.07h0a419.15,419.15,0,0,0-64,5.95A648.3,648.3,0,0,0,385.46,47.86c-43.1,18.19-83.83,40.8-122.7,66.82-52.4,35.09-98.95,76.66-138.72,125.67C82.28,291.8,50,348.61,28.61,411.43,14.7,452.24,4.41,493.85,2,537.12c0,1.32,0,2.64,0,4v.08C1.83,543,2,545,0,546v20a.35.35,0,0,1,.28.19L0,566v68c4.09,2.29.38,7.5,3.76,10.06h0c3.81,33,9.39,65.69,18.07,97.83A650,650,0,0,0,72.62,873.22c10.09,19.37,20.88,38.47,32.87,56.89,12.49,19.18,25.46,37.9,39.4,56a584,584,0,0,0,81.85,86.74c32.49,28,67.12,53,105.35,72.94,18.89,9.85,38,19.26,57.73,26.92a543.43,543.43,0,0,0,136.65,33.93,571.7,571.7,0,0,0,155.19-3.76,635.49,635.49,0,0,0,94.73-23.28,645.67,645.67,0,0,0,104.17-44.39,728.51,728.51,0,0,0,93.31-59,636,636,0,0,0,111.58-106A556.78,556.78,0,0,0,1145.7,880a528.46,528.46,0,0,0,37.72-87.71,543.17,543.17,0,0,0,23-104.81A573.24,573.24,0,0,0,1208.55,578.07ZM909,237.66c3,.16,3.7,2.23,4.72,4.35A788.42,788.42,0,0,1,956.35,348.8c12.8,41,21.42,82.81,27.28,125.26.91,6.56,1.36,13.19,2,19.8,0,.56-.5,1.17-1,2.26a799.79,799.79,0,0,0-80.91-14.92,659.21,659.21,0,0,0-129.46-4.05,15.9,15.9,0,0,1-11.91-3.58c-21.2-17.19-44.16-31.84-67.44-45.9-16.45-9.93-33.73-18.53-50.86-27.31-4.06-2.08-6.93-4.42-8.91-8.55C624.18,369,611,347.47,598.81,325.38c-5-9-10.9-17.43-16.48-26.06-1.78-2.74-3.78-5.32-5-9.2,11.47-4.23,22.48-8.69,33.75-12.35,16.42-5.34,33.06-10,49.52-15.19,5.84-1.86,9.4-.34,13.56,4.26,16.81,18.63,37.88,25.44,62.29,19.2,21.08-5.38,35.67-18.87,42.92-39.38,1.82-5.16,4.14-6.46,9-7,35.49-3.64,71.06-4.11,106.68-3.32C899.72,236.49,904.32,237.41,909,237.66ZM672.68,467.55c9.32,4.1,16.61,11.14,24.9,17.56-5.66,1.14-11.39,2-16.94,3.52-3.38.94-4.86-.22-6.07-3a70.36,70.36,0,0,1-5-14.93ZM461.45,114.93A506.64,506.64,0,0,1,614,94.27c63.62,1.24,125.25,13.36,184.36,37.65,21.55,8.85,42,19.75,62.86,30,11.83,5.82,17.65,16.15,23.76,29-9.15,0-16.93.06-24.71,0a763.24,763.24,0,0,0-77.69,3.53c-5,.46-8-.73-10.76-4.77-18.39-26.71-56.33-34.5-84.13-16.3C675,181.72,666,193,662,207.6c-1.81,6.56-4.62,9.57-11.65,11.24-30,7.15-59.12,17.43-88,28.4-2.16.83-4.36,1.58-6.43,2.6-4.21,2.09-6.9,1.39-10-2.73-12.87-17.34-26.62-34-40.67-50.41-18.81-22-39-42.66-59.79-62.72-3.27-3.14-6.37-6.45-10.38-10.54C444.64,120.35,453,117.41,461.45,114.93ZM567.83,368.36c-31.13-11-63-19.33-97.15-26.9,8.18-4.68,14.59-8.64,21.25-12.09,12-6.24,24.22-12.14,36.31-18.25,3.4-1.73,5.64-1.78,8.23,2A587.67,587.67,0,0,1,570.13,368Zm-362.1-81.8a517.82,517.82,0,0,1,90-88.32c27.68-21.36,57.7-38.93,89-54.33,3-1.46,4.23.24,6,1.63,11.7,9.38,22.24,20.06,32.88,30.56a906.61,906.61,0,0,1,79.18,89.5c1.21,1.56,2.11,3.37,3.55,5.71-24.3,11.41-47.34,24.94-70.64,38-10.14,5.7-19.89,12-29.41,18.61-3.67,2.57-7.28,4.47-12,3.34-11.4-2.71-23.19-2.18-34.71-2.62a655.43,655.43,0,0,0-90.77,2.71,820.37,820.37,0,0,0-102.08,17.06,15.54,15.54,0,0,1-3.11-.24A522.43,522.43,0,0,1,205.73,286.56ZM103.86,680h-3.72c-2.79-8.29-2.71-17.06-3.58-25.57A500.58,500.58,0,0,1,98.5,538.13c5.78-43.92,17.43-86.42,33.89-127.59,1.93-4.81,4.87-7.18,9.86-8.67,46.05-13.72,92.91-22.88,140.89-26.25,16.29-1.14,32.56-2.1,48.89-1.91,2.22,0,4.61-.72,7,1.11-.6,2.68-2.89,4-4.83,5.62-19.34,16.25-38.58,32.63-56.14,50.82-4.14,4.29-8.15,2.88-12.74,2-20.15-4-38.32.44-54,13.7-20.37,17.19-27.44,45-17.35,70.71,2.26,5.77.91,9-2.22,13.24a801.33,801.33,0,0,0-84.2,142C106.46,675.29,105.1,677.59,103.86,680Zm90.8,156c1.8,3,3.42,5.47,1.21,8.92-7,10.94-11.65,23.12-17.86,34.49a15.42,15.42,0,0,1-1.79,2.22c-4.17-1.34-5.34-5.13-7.05-8.14-15.63-27.34-30.9-54.87-41.69-84.59-2.6-7.16-4.76-14.48-7.28-21.68-1.21-3.43-.31-6.46.87-9.65,19.32-52.18,42.87-102.25,72.76-149.32,10.52-16.57,21.49-32.79,32.75-48.84,3-4.27,5.87-6.23,11.48-4.77,38.54,10,80.5-21.91,75.48-69.55a48.29,48.29,0,0,0-3.89-14.34c-1.82-4.07-1.16-6.28,2-9.3,17.75-17,35.88-33.55,55.09-48.87,13.16-10.5,26.79-20.4,40.2-30.59,3.91-3,7.83-3.61,13-2.84,23.36,3.48,46.58,7.63,69.51,13.16a602,602,0,0,1,63.76,19.14q20.13,7.29,39.93,15.39c6.64,2.72,11.16,6.43,14.26,13.66,7,16.44,13.87,33,20.24,49.66,3.6,9.46,3.27,9.39-6.44,12.4C587,513.1,553.36,525.1,520.74,540.08A725.37,725.37,0,0,0,441,583a677.33,677.33,0,0,0-127,101.9c-16.54,16.9-32.54,34.26-47,52.94-3.67,4.73-7.59,4.13-12.26,3.74-26.75-2.23-47.47,7.83-60.93,31.2C181.64,793.84,182.31,815.12,194.66,835.92Zm439.71,249.67c-2.75,7.48-5.57,14.93-8.25,22.43-3.46,9.63-3.42,9.64-14,9.65H589.14a542.79,542.79,0,0,1-117.1-18,515,515,0,0,1-82.14-29.82A495.43,495.43,0,0,1,310,1023.33a541.15,541.15,0,0,1-81.26-71.55c-6.54-7-12.31-14.77-18.83-21.82-3.06-3.3-2.81-6.07-1.1-9.72,7.74-16.54,15.29-33.17,23.84-49.33,2.12-4,4.24-5.81,9.17-5.4,10,.83,19.59-1,29.24-4.45,28.81-10.43,50.93-50.64,32.11-86.09-2.63-5-2.18-7.92,1.23-12.08,37.45-45.78,80.53-85.53,128.54-120A611.16,611.16,0,0,1,512.7,594.3a689.56,689.56,0,0,1,126.56-49.64c5.3-1.48,7.19.46,8.37,5,4,15.38,8.34,30.7,12.17,46.14,4.55,18.34,8.42,36.85,11.44,55.51,1.69,10.45,2.87,21,4.69,31.42.69,4-1.52,5.08-4.16,6.75-20.64,13.08-32.23,31.68-31.25,56.34,1,25.26,12.88,44.22,36.67,54.42,5.11,2.19,6.81,4.9,6.59,10.38-1.21,30.52-3,61-6.48,91.35a880.13,880.13,0,0,1-17.39,97.9A725.77,725.77,0,0,1,634.37,1085.59Zm134.19,1.94c-3.14,3.06-6.2,5.91-10.5,7.26a510.91,510.91,0,0,1-80.59,17.85,9.44,9.44,0,0,1-2.74-.42c-1.7-3.37.38-6,1.34-8.64A889,889,0,0,0,710.76,979q8.7-42.4,13.13-85.49c3.07-29.64,5.08-59.31,4.66-89.12,0-3.86,2.71-4.88,5.17-6.53a74.62,74.62,0,0,0,21.67-21.54C772.79,749.51,767,706,731.2,688.66c-7.39-3.58-10.11-8-10.91-15.45-3.72-34.36-11.36-68-19.1-101.63-2.38-10.32-6-20.36-8.87-30.57-.69-2.47-2.11-4.91-1.29-8,18.79-3.72,37.82-6.48,56.93-8.76,3.6-.43,6.15.78,8.94,3.1C783.52,549.47,808,573.84,831,599.64c3.62,4.05,3.77,7.05,1.36,12.09-15.58,32.56-3.19,68.73,30.5,84.56,10.15,4.78,21.37,7.1,33,4.85,7.72-1.49,7.6-1.12,11.27,5.66,13.42,24.77,25.85,50,36.94,75.91,4.43,10.33,6.17,19.53,1.7,31C928.12,859,908,902.91,882.57,944.47A732.82,732.82,0,0,1,768.56,1087.53Zm214-135.07c-19.34,20.53-39.68,39.95-62,57.17-16.14,12.42-32.51,24.52-50.48,34.28a2.19,2.19,0,0,0,.06-1.84c14.06-19.29,28.3-38.42,41.22-58.54,22.46-35,41.61-71.7,58.7-109.54l3.83-1.87c5.13,21.23,9.14,42.66,13.06,64.14C988.06,942.8,987.11,947.6,982.53,952.46Zm4.86-337.15c-1.1,19.48-3.84,38.9-6.55,58.25A472.83,472.83,0,0,1,971,726c-3.8-.75-4.59-3.47-5.55-5.78-5.84-14.2-14.48-26.9-21.62-40.39-2.44-4.63-2.49-7.88-.11-12.65a61.86,61.86,0,0,0-14.83-75.24c-14.24-12.4-31-16.22-49.24-14-5.49.67-8.34-.79-11.66-4.83a495.58,495.58,0,0,0-37.3-40.06c-3.25-3.17-6.69-6.15-10.31-12.17,16.18.67,30.15.8,44,1.93,27.49,2.26,54.86,5.71,81.87,11.46,12.32,2.62,24.49,6,36.83,8.58,4.64,1,5.29,3.37,5.56,7.53C990.08,572.07,988.61,593.72,987.39,615.31Zm-21-368.42c-.53-1.13-1.58-2.24.19-4.68,82.72,83.42,131.37,183,147.62,300.15-23.1-11-45.28-20.69-68.42-27.51-10.83-3.19-13.72-8.16-14.52-19a700.88,700.88,0,0,0-14.47-96.31A777,777,0,0,0,994,317.08C986,293.23,977.22,269.66,966.43,246.89Zm149,411.3a504.26,504.26,0,0,1-11.05,64.56c-5.62,23.57-13.24,46.42-21.68,69.12-9.31,25-21.41,48.58-34.41,71.73a266.36,266.36,0,0,1-21,32.49c-4.09-3.18-3.2-7.6-4-11.26a664.27,664.27,0,0,0-23.72-84.11c-1.38-3.89-.3-7.13.82-10.52,10.69-32.5,17.75-65.85,23.41-99.54a740.49,740.49,0,0,0,10.55-129.46c2.09-2,4.08-1.35,5.87-.7,25.24,9.12,49.54,20.43,73.8,31.84,3.25,1.53,3.87,3.92,3.94,7.2A472.31,472.31,0,0,1,1115.4,658.19Z"/></g></g></svg>