<?xml version="1.0" encoding="utf-8"?>
<!-- Generator: Adobe Illustrator 23.0.4, SVG Export Plug-In . SVG Version: 6.00 Build 0)  -->
<svg version="1.1" id="Layer_1" xmlns="http://www.w3.org/2000/svg" xmlns:xlink="http://www.w3.org/1999/xlink" x="0px" y="0px"
	 viewBox="0 0 3342 1488" style="enable-background:new 0 0 3342 1488;" xml:space="preserve">
<style type="text/css">
	.st0{fill:#FFFFFF;}
</style>
<title>Asset 2</title>
<g>
	<g id="Layer_1-2">
		<path class="st0" d="M96.8,1328.3c-19.8-26.1-67.2-26.3-84.7,6.3c-3.6,6.8-6.4,13.9-8.3,21.3c-0.7,3.2-2.7,6-2.8,9.4
			c0,0.2,0,0.4-0.1,0.6c-0.3,0-0.6,0-1,0v26l2.3,7.5v0.1c0.4,1.5,0.9,3.1,1.4,4.6c0.8,5.3,2.3,10.4,4.5,15.3
			c9.1,20.8,24.2,32.8,47.7,32.9c23.3,0.1,40.2-10.4,48.9-32.4c10.2-25.4,9.8-51.3,0.6-77C103.5,1337.6,100.3,1332.9,96.8,1328.3z
			 M83.4,1409.1c-5.2,12.6-15.3,19.4-27.6,19.2c-6.7-0.1-13.1-2.9-17.8-7.7c-4.9-4.6-8.3-10.5-9.9-17c-3.8-15.4-4-31,0.2-46.4
			c3.3-12,10.5-20.9,23.5-23.1c14.2-2.4,26.2,4.6,31.8,18.3c3.7,9.1,4.7,18.7,4.4,28.4C88.3,1390.5,87.2,1400.1,83.4,1409.1z"/>
		<path class="st0" d="M195.2,1355.9c-11.8-11.2-27.5-11.3-39.4-0.2c-1.7,1.6-2.6,4.4-5.6,4.6c-0.7-10.8-0.7-10.8-11.2-10.7h-1
			c-9.2,0-8.5-0.6-8.5,8.7c0,40.9,0,81.8,0,122.7c0,2.3,0.4,4.6,0.6,6.9h22c-1.5-7.9-0.5-15.9-0.6-23.9c-0.1-7.7,0.1-15.4,0.2-23.1
			l2.2-0.7c0.8,1.4,1.8,2.7,2.8,3.9c12.2,11.3,27.3,11,39-0.8c5-5,8.6-11.1,10.6-17.8c4.8-16,5.1-33,0.9-49.2
			C205.2,1368.6,201,1361.5,195.2,1355.9z M184.6,1418.3c-2.6,6.5-6.6,11.6-14.4,11.9c-7.3,0.3-12.2-3.8-14.8-9.9
			c-6.1-14-6.4-28.4-0.7-42.6c2.5-6.1,7.5-10.1,14.7-10s11.5,4.6,14.4,10.6c3.1,6.4,3.5,13.4,3.8,19.4
			C187.6,1405.4,187.1,1412,184.6,1418.3z"/>
		<path class="st0" d="M3320.9,1390.1c-5.7-1.9-11.4-3.5-17.1-5.3c-3.5-1.1-7.1-2.1-10.2-3.9c-5.1-2.9-5-8-0.2-11.1
			c6.8-4.4,20.2-2.4,24.2,4.5c2.6,4.6,5.3,5,9.5,3.8c2.9-0.9,5.8-1.5,8.8-2c4.4-0.6,4.5-3,3.3-6.4c-3.6-10.4-9.9-18-21.1-20.6
			c-8.5-2-17.3-2.1-25.8-0.3c-14.1,3.1-22.2,13.3-22.7,27.8c-0.6,15.1,4.7,23.5,18.7,29.6c8.6,3.7,17.6,5.9,26.6,8.6
			c3.4,1,6.2,3,6.4,6.8c0.2,4-1.8,6.9-5.3,8.9c-8.9,4.9-21.4,1.8-25.7-7.4c-2.3-4.9-4.9-5.4-9.2-4.4c-3.6,0.8-7.2,1.3-10.8,2
			c-2.8,0.6-3.7,1.9-2.8,5c3.1,10.4,9,18.4,19,23.1c21.9,10.2,45,2.4,55.6-18.6v-22C3338.2,1398.3,3330.3,1393.3,3320.9,1390.1z"/>
		<path class="st0" d="M2092.7,15.7c-33.7,0-67.3,0-101,0c-13.7,0-13.7,0-13.7,13.6c0,300,0,600,0,899.9c0,3.7,0.7,7.5-1.1,12.3
			c-2.2-3.8-3.7-6.3-5.1-8.9c-37.2-67.7-74.4-135.4-111.6-203.1c-129.1-234.9-258-469.9-386.9-704.9c-3.7-6.8-7.6-9.2-15.4-9.1
			c-36.3,0.5-72.7,0.1-109,0.2c-14.9,0-12.6-1.8-12.6,12.7c0,385.6,0,771.3,0,1156.9c0,1.7,0,3.3,0,5c0.1,7.9,0.1,8,8.3,8
			c34,0,68,0,102,0c13.3,0,13.3,0,13.3-13V273.8l2-0.2c2,3.5,4,6.9,5.9,10.4c165.5,301.9,330.9,603.8,496.3,905.8
			c3.5,6.3,7.1,8.8,14.5,8.8c36.3-0.4,72.7-0.2,109-0.2c12.9,0,12.9,0,12.9-13.3V29.1c0-2,0-4,0-6
			C2100.7,15.2,2100.6,15.6,2092.7,15.7z"/>
		<path class="st0" d="M2836.6,1102.7c34.4-46.2,54.1-99,67.3-154.5c1.6-6.5,1.2-6.8-5-7.8c-36.5-5.6-73.1-11-109.6-16.9
			c-6-1-7.7,1.2-8.9,5.9c-0.2,1-0.4,2-0.8,2.9c-11.3,34.7-25.5,67.9-47.4,97.4c-17.2,23.1-37.5,42.9-64.2,54.2
			c-65.4,27.6-127.1,19.9-183.1-24c-37.8-29.7-61.6-69.3-77-114.4c-14-41-20.2-83.4-23.4-126.3c-1-13.5-1.2-11.3,10.4-11.3
			c83.6-0.1,167.3-0.1,251,0c84.3,0,168.7,0,253,0c9.3,0,9.4,1.4,9.8-8.8c2.4-61.2-1.2-121.9-12.9-182c-9.5-49-25-95.9-50.1-139.3
			c-20-34.8-46-65.7-76.9-91.3c-58.2-48.4-125.5-68-200.6-62.9c-84.3,5.6-151.9,43-206.1,106.5c-32.3,37.8-54.7,80.9-70.2,127.9
			c-16.8,50.9-25.2,103.4-28.5,156.8c-4.3,69.8-2.7,139.2,10.5,208c9.7,50.4,25.4,98.7,52,142.8c36.2,59.9,84.9,105.8,150.6,131.8
			c56.2,22.2,114.6,26.1,173.9,17.1C2727.8,1202.6,2789.8,1165.4,2836.6,1102.7z M2391.7,682.5c4.1-63.5,19.4-123,61-173.2
			c24.8-30,54.8-52.8,93.2-62.1c55.8-13.5,107.2-4,152.1,33.2c35.6,29.4,57.9,67.3,69.9,111.7c8.4,31,13.1,62.5,15.4,95
			c-3.6,2-7,1.2-10.3,1.2c-123.7,0.1-247.3,0.1-371,0c-1.7-0.1-3.3-0.1-5,0C2392.4,688.9,2391.4,686.6,2391.7,682.5z"/>
		<path class="st0" d="M3003.2,454.4c22.3,0,44.7-0.1,67,0c13.7,0.1,12-1.9,12,12.4c0,163,0.1,325.9,0.1,488.9
			c0,44.7,1.3,89.3,7.7,133.6c6.1,42.3,25.5,76,62.8,98.2c20.1,12,42.3,17.6,65.3,20.4c38.3,4.6,75.7-0.6,112.9-9.7
			c4.9-1.2,6.5-2.7,5.7-8c-2.6-18.1-4.5-36.3-6.8-54.5c-2.6-20.5-5.3-41-7.7-61.4c-0.5-4.1-1.5-6.1-6.2-5c-4.6,1-9.2,1.6-13.9,1.9
			c-15.9,1.3-31.7,3.7-47.8,1.3c-27.1-4.1-43.1-19.1-48.4-45.8c-3.8-19.4-4.5-39-4.6-58.7c-0.2-80.7-0.3-161.3-0.2-242
			c0-86.7,0-173.3,0-260c0-13.5-0.6-11.6,12-11.6c33-0.1,66,0,99,0c9.4,0,9.4-0.1,9.4-9c0-31.7,0-63.3,0-95c0-8.6-0.1-8.7-8.7-8.7
			c-33.3,0-66.6,0-100,0c-12.5,0-11.6,1.8-11.6-11.9c0-91.7,0-183.3,0-275v-13c-4.3,3-7.1,4.8-9.7,6.7
			c-33.6,24.6-67.1,49.4-100.9,73.8c-6,4.3-8.5,8.7-8.4,16.3c0.3,64.6,0.2,129.3,0.2,194c0,10.1,0.1,9.2-9.2,9.2h-69
			c-9.3,0-8.9-0.7-8.9,8.5v96C2995.1,454.5,2994.5,454.4,3003.2,454.4z"/>
		<path class="st0" d="M2068.4,1375.3c13.7-12.5,17.7-27.3,12.1-42.5c-6-16.3-18.8-21.2-34.8-21.1c-15.3,0.1-30.6,0.2-45.9-0.1
			c-5.1-0.1-7,1.1-7,6.6c0.2,41.9,0.2,83.9,0,125.8c0,4.6,1.1,6.6,6.1,6.4c18.6-0.3,37.3-0.3,55.9-0.5c14.3-0.1,23.7-7.6,29.5-20.1
			C2093.9,1409.1,2088.3,1389.5,2068.4,1375.3z M2029.3,1335.7h5v0.3c4.7,0,9.3-0.3,14,0.1c7.4,0.6,11.3,4.8,12,12.2
			c0.7,8.1-2.3,13.5-9,15.8c-5.8,2-11.8,1.6-17.8,1.4c-5.5-0.1-12.4,2.5-16.2-1.4c-3.4-3.5-1-10.2-1.1-15.4
			C2015.9,1335.7,2016,1335.7,2029.3,1335.7L2029.3,1335.7z M2064.3,1409.4c-0.3,10.6-5.2,15.9-15.7,16.6c-4.6,0.3-9.3,0-13.9,0v0.3
			c-4.7,0-9.3-0.1-13.9,0c-3.2,0.1-4.9-0.9-4.8-4.5c0.1-9.3,0.1-18.6,0-27.9c0-2.8,1.1-4.3,4-4.2c10,0.2,19.9-0.2,29.8,0.7
			C2059.7,1391.2,2064.7,1398.3,2064.3,1409.4L2064.3,1409.4z"/>
		<path class="st0" d="M1068.6,1326.1c0-15,0-14.7-14.8-14.6c-5.6,0-6.5,2.2-6.5,7c0.2,24,0.1,47.9,0.1,71.9v9.8
			c-4.1-1.2-4.2-4.3-5.3-6.4c-11.7-23.1-23.9-46.1-34.6-69.7c-4.6-10.1-10.2-13.8-21-12.7c-9.6,1-8.2,0.7-8.2,9.3
			c0,38.6-0.1,77.2,0,115.8c0.1,15.8-3.3,13.6,14.5,13.8c6.9,0.1,7.1-0.2,7.1-7.2c0.1-24,0-47.9,0-71.9c0-2.4,0.3-4.8,0.6-9.5
			c2.7,5.2,4.2,8.1,5.7,11c11,21.7,22.5,43,32.6,65.1c4.6,10,10,14,21,12.8c9.7-1.1,8.8,0.5,8.8-9.7
			C1068.6,1402.7,1068.6,1364.4,1068.6,1326.1z"/>
		<path class="st0" d="M2186.4,1426.3c-16.3-0.1-32.7-0.2-49,0.1c-4.8,0.1-6.5-1.4-6.3-6.2c0.3-8.3,0.3-16.7,0-25
			c-0.1-4.5,1.7-5.6,5.9-5.6c11.7,0.2,23.3,0.1,35,0.1c16.6,0,16.6,0,16.2-16.2c-0.2-7-0.2-7.1-7.2-7.1c-14.7-0.1-29.3-0.1-44,0
			c-4.2,0-6-1.1-5.8-5.6c0.3-6.3,0.3-12.7,0-19c-0.3-4.9,1.6-6.3,6.3-6.2c12.7,0.3,25.3,0.1,38,0.1c17.6,0,17.4,0,17.2-17.3
			c-0.1-5.1-1.3-6.9-6.7-6.8c-23.3,0.3-46.6,0.1-70,0.1c-7.8,0-7.9,0.1-7.9,8.4c0,20.3,0,40.7,0,61c0,20.7-0.1,41.3,0,62
			c0,7.1,0.1,7.2,7,7.2c21.3,0.1,42.6,0,64,0c15.7,0,15.7,0.1,15.5-15.8C2194.5,1426.4,2194.5,1426.4,2186.4,1426.3z"/>
		<path class="st0" d="M2427.6,1370.3c-7.6-3.5-15.6-5.7-23.6-8.2c-5.1-1.6-10.3-3.1-14.6-6.3c-6-4.5-6.7-11.2-2.1-16.5
			c8.4-9.6,29.8-6.5,35,5.1c3.5,7.9,3.5,7.9,11.8,7.7c3.3-0.1,6.7-0.2,10-0.3c2.4-0.1,3.4-1.2,3.4-3.8c0.4-15.2-10.7-30.8-25.7-35.9
			c-7.7-2.7-15.7-2.7-23.7-2.2c-24.2,1.6-39.8,22-35.1,45.8c2.9,14.6,11,24.8,24.9,30c9.3,3.5,18.9,6.5,28.3,9.7
			c6.9,2.4,11.4,6.7,11.5,14.5c0,7.6-4.9,14.3-12.1,16.6c-11.1,3.8-26.5,2.9-32.4-14.3c-0.8-2.2-1.2-4.5-1.9-6.7
			c-0.5-1.7-1.6-3-3.5-2.8c-5.3,0.7-10.6,1.4-15.8,2.1c-2.8,0.4-3.8,1.9-3.3,4.9c4.5,30.9,22.2,43,46.2,42.6c3.7-0.2,7.4-0.2,11-0.7
			c17.2-2.3,29.8-13.4,33.6-29.8c1.3-6.2,1.6-12.6,0.9-18.9C2449,1387.8,2441.6,1376.8,2427.6,1370.3z"/>
		<path class="st0" d="M2274.1,1368.8c-6.8-2.6-13.9-4.6-20.8-6.9c-4.7-1.6-9.6-3-13.6-6c-6-4.5-6.9-11.2-2.3-16.5
			c8.3-9.7,29.8-6.7,35,4.9c3.6,8.1,3.6,8.1,12.6,7.8c2.7-0.1,5.3-0.2,8-0.2c3.2,0,4.8-1.1,4.6-4.7c-1-19.9-15.3-35.2-35.3-37.1
			c-4.7-0.4-9.3-0.5-14-0.2c-24.3,1.5-39.9,21.9-35.3,45.7c2.8,14.6,10.9,24.9,24.8,30.1c9.6,3.7,19.5,6.7,29.2,10.1
			c6.1,2.2,10.3,6.2,10.7,13c0.4,7.4-3,12.9-9.2,16.5c-13.1,7.6-28.9,2-35-11.9c-1.4-3.3-0.5-8.2-3.8-10c-3.5-1.9-7.7,0.6-11.7,0.7
			c-2,0.1-4,0.4-5.9,0.8c-2.7,0.5-3.9,1.7-3.5,4.8c4.4,30.5,21.8,43.2,46.1,42.7c3.7-0.2,7.3-0.2,11-0.7c16.9-2.2,29-12.7,33.4-28.8
			c1.4-5.2,1.5-10.5,1.4-15.9C2300.3,1388.5,2291.6,1375.5,2274.1,1368.8z"/>
		<path class="st0" d="M1937.1,1311.8c-14.3,0.4-28.6-0.1-43-0.1c-7,0-7.1,0.2-7.1,7.2c-0.1,20.6,0,41.3,0,61.9
			c0,17.7,0,35.3,0,52.9c0,17.3,0,17.1,16.9,16.7c4.7-0.1,6.4-1.4,6.3-6.2c-0.3-13,0.1-26-0.2-39c-0.1-5,1.2-7.2,6.7-7
			c8,0.3,16,0.1,24-0.5c16.5-1.4,26.8-10.2,31.5-26.1c2.8-9.6,3.2-19.8,1.1-29.7C1970,1325.5,1959.7,1311.2,1937.1,1311.8z
			 M1936.6,1373.5c-7.5,1-15.2,0.6-22.8,0.8c-3.1,0.1-3.8-1.8-3.8-4.4c0.1-9.9,0.1-19.9,0-29.8c0-3.7,1.9-4.4,5-4.3s6,0,11,0
			c1.6,0.1,5.2,0,8.8,0.4c9.7,1.1,15,7.2,15.5,17.4C1950.8,1364.4,1945.9,1372.2,1936.6,1373.5z"/>
		<path class="st0" d="M1330.7,1349.6c-4.3-0.4-7,0.9-7.3,5.7c-0.3,2-0.8,3.9-1.4,5.8l-12.4,51.3c-4.8-16.5-8.3-33.1-11.8-49.6
			c-2.8-13.4-2.8-12.9-16.3-13.3c-6.3-0.2-7.8,2.6-8.9,7.8c-3.3,16.3-7,32.5-10.6,48.7c-0.4,1.8-0.1,4.1-3.1,5
			c-3.5-14.8-7.1-29.5-10.6-44.2c-4.4-18.6-4.3-18.6-23.2-16.5c-0.3,0.1-0.6,0.2-0.9,0.4c-0.5,2,0.2,3.9,0.7,5.9
			c7.1,27,14.2,54,21.3,81c3.5,13.2,3.4,13,16.9,13c5.2,0,7.8-1.2,8.8-6.7c1.7-9.8,3.9-19.6,6.3-29.2c2.1-8.3,2.6-17,6.9-26
			c3.8,16.7,7.3,32.1,10.8,47.6c3.4,15.2,3.3,15,18.3,14.4c4-0.1,5.9-1.5,6.8-5.3c1.9-7.8,4.1-15.4,6.1-23.1
			c6.3-23.7,12.6-47.5,18.9-71.5C1340.6,1348.9,1335.6,1350.1,1330.7,1349.6z"/>
		<path class="st0" d="M895.7,1311.5c-5.1,0.1-6.3,2.1-5.9,6.6c0.2,2.6,0,5.3,0,8v32.4c-3.5-0.1-4.3-2.2-5.7-3.4
			c-12.4-10.5-28-9.9-39.5,1.5c-5.2,5.2-8.9,11.7-10.6,18.9c-3.7,14.9-3.9,30.5-0.6,45.4c1.8,9.2,6.5,17.6,13.4,24
			c11,10.1,25.9,10.1,37.1,0.3c2.2-1.9,3.3-5,7.3-6c0.5,11.3,0.5,11.3,11,11.2h1c8.5-0.1,8.6-0.1,8.6-8.7c0-38.3,0-76.5,0-114.8
			C911.8,1310.9,911.8,1311.1,895.7,1311.5z M886.8,1419.7c-2.4,6.8-6.6,12.4-15,12.5c-7.2,0.1-12.7-4.5-15.8-12.9
			c-2.4-6.4-2.2-13-2.3-17.6c-0.2-9,0-16,2.9-22.6c3.3-7.7,9-11.8,15.8-11.4c7.7,0.4,12.1,5.4,14.3,12
			C891.2,1393,891.5,1406.5,886.8,1419.7L886.8,1419.7z"/>
		<path class="st0" d="M3102.5,1327c0-16.8,0-16.7-16.9-15.5c-3.9,0.3-5.2,1.7-5.1,5.4c0.2,7.3,0,14.7,0,22v20.9
			c-7.3-6.5-12.9-11.6-21.1-12.2c-14.7-1.1-27.7,7.5-33.1,23.6c-6.3,18.5-6.1,37.3-0.1,55.9c2.1,6.4,5.7,12.1,10.6,16.7
			c11.5,11.2,26.8,11.5,38.5,0.7c1.9-1.7,3.5-3.7,6.3-6.7c0.4,2.5,0.5,3.2,0.6,3.8c0.4,8.6,0.4,8.6,8.6,8.7h2
			c10.8-0.1,9.8,1.1,9.8-9.5C3102.5,1403,3102.5,1365,3102.5,1327z M3077.1,1421.6c-3,5.8-6.9,10.7-14.3,10.6
			c-7.6-0.1-12.5-4.5-14.9-11.2c-4.9-13.8-5.3-28-0.1-41.8c3-8,8.8-11.8,15.7-11.5c7.7,0.4,11.7,5.5,14.4,12s2.6,13.6,2.9,20.3
			C3080.5,1407.6,3080.5,1415,3077.1,1421.6L3077.1,1421.6z"/>
		<path class="st0" d="M713.4,1311.7c-8.7,0.1-8.7,0.1-8.8,8.6c0,12.6,0,25.2,0,39.9c-7.4-7.1-13.1-11.9-21.4-12.4
			c-14.7-1-27.5,7.8-33,23.8c-6.2,18.5-6,37.3,0,55.9c2.2,6.7,6.2,12.7,11.4,17.3c11.1,10.1,25.8,10.2,37.1,0.3
			c2.1-1.9,4.1-4,6.3-6.1c0.5,0.9,1,1.4,1,2c0.7,9.3,0.7,9.3,9.9,9.4c1,0,2,0,3,0c7.4-0.1,7.5-0.1,7.5-7.8c0-39.3,0-78.6,0-117.9
			C726.5,1311.5,726.5,1311.5,713.4,1311.7z M701.6,1420.5c-2.9,6.2-6.7,11.6-14.5,11.8c-6.9,0.2-12.8-3.8-15.5-11.8
			c-4.6-13.5-5-27.4,0-40.9c3-8,8.8-12,15.5-11.8c8.2,0.3,12.2,5.8,14.9,12.6c2.5,6.3,2.3,13,2.7,19.2
			C704.5,1406.9,704.6,1414,701.6,1420.5L701.6,1420.5z"/>
		<path class="st0" d="M2863,1396.1c0.1-8-0.3-16-1.2-23.9c-1.4-10.5-6.2-19.2-16.9-22.8s-20.3-1.9-28.8,5.7
			c-1.6,1.4-2.7,3.8-6.3,4.2v-33.7c0-14.2,0-14.2-14.5-13.8c-7.4,0.2-7.4,0.2-7.5,7.8c0,38.7,0,77.3,0,116c0,15.5,0,15.3,15.4,15.1
			c5.2-0.1,6.8-1.7,6.7-6.9c-0.3-15.3-0.1-30.7-0.1-46c0-5.7,0.3-11.3,1.9-16.8c2.8-9.4,8.8-13.9,17.4-13c7.3,0.8,10.3,4.6,11.2,15
			c1.6,17.6,0.6,35.3,0.8,53c0.1,15.4,0,15.2,15.7,14.7c4.9-0.1,6.2-1.8,6.2-6.4C2862.9,1428.1,2863.1,1412.1,2863,1396.1z"/>
		<path class="st0" d="M1564.1,1393c-2.2-4.4-2.3-7.7,1.1-11.6c5.2-6.1,9.9-12.5,14.5-19c2.8-3.9,6.7-7.1,8.2-12.7
			c-3.5,0-6.2,0.4-8.7-0.1c-12.4-2.3-20.7,2.4-26.6,13.5c-3.6,6.8-8.8,12.6-13.9,19.6c-2.2-4.7-1.4-8.1-1.4-11.3
			c-0.1-15.3,0.1-30.6-0.1-45.9c-0.2-15.8,2.5-13.6-13.6-13.8c-8.2-0.1-8.3,0.1-8.3,8.9c0,40.3,0,80.5,0,120.8c0,1.3,0.1,2.7,0,4
			c-0.4,7,5,5.4,8.2,4.8c4.6-0.9,12.2,4.7,13.5-4.6c0.7-6,0.8-12,0.1-17.9c-1-9.2,3.7-15.2,10.3-21.3c4.4,9.5,8.5,18.2,12.5,26.9
			c8.6,18.5,8.6,18.5,29.7,16.6c0.8-3-0.8-4.6-1.6-6.4C1580.2,1426.6,1572.3,1409.7,1564.1,1393z"/>
		<path class="st0" d="M2661.4,1395.8c-3.4-6.5-3.5-11.2,1.5-16.8c5.5-6.2,10.2-13.1,15.1-19.8c2-2.8,5.1-5.1,5.7-9.6
			c-6.2,0-11.8,0.3-17.4-0.1s-9.2,1.4-12.3,6.2c-5.8,8.9-12.3,17.3-19.1,26.8c-2.3-4.5-1.5-7.9-1.5-11.1
			c-0.1-15.3,0.1-30.6-0.1-45.9c-0.2-16,2.9-13.7-14.4-13.9c-7.3-0.1-7.4,0.1-7.4,7.8c0,38.6,0,77.2,0,115.8
			c0,16.9,0,16.8,17.2,15.2c3.3-0.3,4.8-1.4,4.8-4.8c-0.1-6,0.5-12-0.1-18c-0.9-9.2,3.6-15.3,10.2-21.4c1.8,3.6,3.2,6.6,4.6,9.6
			c4.5,9.6,9,19.3,13.4,28.9c1.3,2.7,2.1,5.6,6.1,5.5c6.1-0.2,12.3-0.1,18.4-0.1c0.2-4.5-1.8-6.9-3-9.5
			C2675.8,1425.8,2669.1,1410.6,2661.4,1395.8z"/>
		<path class="st0" d="M2589.8,1408c0-9,0-18,0-27c-0.1-4.3-0.5-8.6-1.4-12.9c-1.7-9.6-7.4-15.3-16.3-18.4
			c-7.8-2.7-15.8-2.3-23.8-1.8c-12.5,0.8-21.1,7.2-26,18.8c-3.9,9.2-3.7,9.6,5.9,11.5c2,0.4,3.9,0.9,5.8,1.4c3.3,0.8,5.1,0,6.9-3.5
			c4.1-8,12-10.6,20.1-7.5c5,1.9,6.9,5.8,7.1,11.9c0.2,5.4-3.9,5.7-7.1,6.7c-7.3,2.3-14.8,3.9-22.1,6.2c-15.6,5-22.1,14.4-21.7,30.5
			c0.2,11.2,4.1,20.5,14.4,25.5c10.7,5.2,21.3,3.8,31.1-3.1c2.3-1.6,3.9-4.3,6.9-4.9c3.6,8.9,3.6,9,12.8,8.9c3.6,0,7.3,0.8,11.5-1.1
			C2588.9,1435.9,2589.8,1421.9,2589.8,1408z M2567.7,1418.5c-0.7,6.1-4.2,10.3-9.5,13.1c-7.1,3.7-14.7,1.4-17.7-5.2
			c-3.2-7-0.7-14.1,6.7-17.2c6.5-2.8,13.4-4.7,20.5-5.6C2568.4,1408.5,2568.5,1413.5,2567.7,1418.5L2567.7,1418.5z"/>
		<path class="st0" d="M1654.1,1364.2c-7,10.3-10.5,22.5-10.2,34.9c-0.1,11.8,1.7,23.3,7.9,33.6c15.8,26.3,51.5,26.7,67.9,0.9
			c12.7-19.9,11.8-49.6-1-69.2C1703.8,1341.6,1668.6,1342.4,1654.1,1364.2z M1702.5,1419.5c-3.4,6.1-8,10.6-15.5,10.8
			c-8,0.2-13.5-4-16.6-10.6c-6.1-12.5-6.1-27,0.1-39.5c3-6.3,8.1-10.4,15.7-10.4s12.4,4.2,15.9,10.2c3.7,6.2,4.4,13.2,4.1,19.5
			C1706.4,1406.8,1705.9,1413.4,1702.5,1419.5L1702.5,1419.5z"/>
		<path class="st0" d="M1362,1364.5c-7.3,10.5-10.4,22.2-10.1,34.9c-0.1,11.8,1.8,23.3,8,33.5c15.7,25.8,50.9,26.4,67.4,1.3
			c12.9-19.6,12.8-49.7-0.3-69.1C1411.3,1341.6,1378.1,1341.3,1362,1364.5z M1411.1,1418.4c-3.3,6.5-7.9,11.6-15.9,11.8
			c-8.4,0.3-14-4.2-17.2-11.3c-5.5-11.9-5.6-25.7-0.1-37.7c3-6.7,8.1-11.4,16-11.5c8.4-0.1,13.4,4.9,17,11.8
			c3,5.8,3.5,12.1,3.3,18.4C1414.4,1406.3,1414,1412.6,1411.1,1418.4L1411.1,1418.4z"/>
		<path class="st0" d="M2889.2,1367.2c-11.7,21.2-11.8,43.1-0.9,64.1c14.5,27.9,52.2,28.5,68.8,1.7c6.3-10.2,9-21.4,9-35.1
			c0.1-9.8-2.8-20.5-8.5-30.7C2942.3,1340.1,2903.3,1341.7,2889.2,1367.2z M2939,1420.2c-7,13.7-23.1,13.5-31.2,0.4
			c-3.1-5.1-4.5-11.7-4.4-21.2c0.1-6.7,0.5-13.3,4-19.3s8.2-10.4,15.8-10.4s12.8,4,15.9,10.2
			C2945.6,1393.2,2945.7,1407.1,2939,1420.2L2939,1420.2z"/>
		<path class="st0" d="M289.7,1366c-6.2-11.3-15.6-17.8-28.9-18.3c-16-0.6-27.6,6.4-34.3,22.3c-8.3,19.5-8.6,39.6-0.7,59.2
			c6.8,17.1,19.8,24.4,38.8,23c15.7-1.2,26.7-11.4,31.1-29.8c-4.8-0.9-9.8-1.4-14.5-2.8c-4.9-1.5-7.1,0-8.9,4.6
			c-3.6,10-16.8,10.8-23.6,2.1c-4.1-4.9-5.9-11.3-5.2-17.7c3.2-1.9,6.6-1,9.8-1c12.6-0.1,25.3-0.2,37.9,0c4.6,0.1,6.6-1.2,6.4-6.2
			C297.3,1389.2,295.8,1377.1,289.7,1366z M272.2,1390.3c-4.3,0-8.6,0-12.9,0l0,0c-3,0-5.9,0.1-8.9,0c-6.9-0.2-7.5-0.8-6.4-7.3
			c0.6-3.9,2.4-7.6,5.1-10.6c5.9-6.5,14.9-6.5,20.9-0.1c3.6,3.8,4.8,8.6,5.7,13.5C276.2,1388.6,275.3,1390.3,272.2,1390.3
			L272.2,1390.3z"/>
		<path class="st0" d="M530,1370.6c-5.8-13.6-15.5-22.1-30.9-22.9c-16-0.9-26.6,6.8-33.5,20.4c-6.6,13.2-8.1,27.3-6.5,41.8
			c1.1,10,3.5,19.6,9.5,28c11.6,16.2,36.9,19.8,52.4,7.2c7.1-5.6,11.7-13.7,12.9-22.7c-5.2-1-9.9-1.5-14.3-2.8
			c-4.7-1.4-7.2-0.4-8.9,4.5c-3.6,10.2-17.3,11.1-24.2,1.6c-3.7-5-5.3-10.6-4.5-18h10.6c12.3,0,24.6-0.1,36.9,0.1
			c4.5,0.1,6.8-0.9,6.5-6C535.4,1391,534.2,1380.5,530,1370.6z M510.1,1390.3c-4.3,0-8.6,0-12.9,0l0,0c-2.6,0-5.3,0-7.9,0
			c-7.9-0.1-8.7-1-7.1-8.3c2.1-9.4,9.3-15.2,17.4-14.1c7.6,1,14.5,10.4,14.2,19.1C513.7,1389.7,512.3,1390.3,510.1,1390.3
			L510.1,1390.3z"/>
		<path class="st0" d="M2733.6,1347.6c-14.1-0.6-24.8,5.3-31.3,17.4c-11.9,22.2-12.1,45.4-1.6,68.1c7.1,15.2,21.3,21.3,39.3,18.9
			c14.6-2,25.2-12.8,28.7-29.6c-4.5-0.9-9.1-1.5-13.6-2.7c-4.8-1.2-7.3-0.4-9.8,4.8c-4.6,9.7-15.9,10.5-23,2.3
			c-4.4-5-6.5-11.6-5.9-18.2c3.6-1.7,6.9-1,10.2-1c12.6-0.1,25.3-0.1,37.9,0c3.1,0,6,0.1,6-4.4c0-12.8-1.3-25.3-7.5-36.7
			C2756.8,1354.9,2747.2,1348.2,2733.6,1347.6z M2748.6,1387.1c-0.2,2.7-1.7,3.2-3.9,3.2h-11.9l0,0c-2.6,0-5.3,0-7.9,0
			c-9.4-0.1-9.8-0.6-7.2-9.3c2.8-9.7,9.9-14.7,18.1-13C2743,1369.6,2749.2,1378.9,2748.6,1387.1L2748.6,1387.1z"/>
		<path class="st0" d="M3127.7,1362.4c-12.5,19.1-13.7,54.1-1.6,73.4c8.5,13.4,23.2,19.3,39.9,15.9c13.6-2.8,23.5-13.6,26.5-29.3
			c-4.9-0.9-9.8-1.5-14.6-2.8c-4.3-1.2-6.6-0.2-8.2,4.2c-4,11.2-18.6,11.5-25.4,0.7c-3-4.7-4.4-10.2-4.1-15.7c3.7-1.7,7.1-1,10.4-1
			c12.6-0.1,25.3-0.1,37.9,0c3.2,0,6,0,6-4.5c0-13.8-1.8-27.1-9-39.3C3173.3,1342.9,3141.2,1341.9,3127.7,1362.4z M3140.8,1389.8
			c0.6-14.5,6.5-22.4,16.4-22.1c9.5,0.3,15,8.3,15,22.1H3140.8z"/>
		<path class="st0" d="M781.6,1347.6c-15.1-0.7-25.8,6.1-32.3,19.1c-10.8,21.5-10.8,43.7-1.1,65.5c7.1,15.8,21.3,22.3,39.7,19.8
			c14.5-1.9,25.2-12.7,28.7-29.6c-4.5-0.9-9.1-1.5-13.6-2.7c-4.8-1.2-7.3-0.5-9.8,4.7c-4.6,9.7-15.8,10.5-23,2.4
			c-4.4-5-6.5-11.6-5.9-18.2c3.5-1.7,6.9-1,10.2-1c12.6-0.1,25.3-0.1,37.9,0c4,0,6.2-0.7,6.1-5.4c-0.2-11.7-1.4-23.2-6.6-34
			C805.8,1355.8,796.2,1348.3,781.6,1347.6z M764.9,1389.9c0.2-14.2,6.2-22.3,16.1-22.1c9.5,0.2,15,8.1,15.2,22.1H764.9z"/>
		<path class="st0" d="M1156.9,1370.4c-6-13.5-15.6-21.9-31.1-22.7c-16-0.8-26.9,6.9-33.3,20.6c-9.5,20.3-9.6,41.3-1.2,62
			c6.9,16.8,20.5,23.8,39.5,21.9c15.1-1.5,25.9-12,30-29.6c-4.5-0.9-9.1-1.6-13.5-2.7s-7.3-0.8-9.9,4.5
			c-4.8,10.2-16.4,10.8-23.6,1.9c-4-4.9-6-11.2-5.4-17.5c3.3-1.8,6.7-1,10-1c12.6-0.1,25.3-0.2,37.9,0.1c4.8,0.1,6.4-1.4,6.3-6.3
			C1162.3,1390.8,1161.2,1380.3,1156.9,1370.4z M1108.6,1389.6c1-14.5,6.4-21.7,15.8-21.8s15.1,7.4,15.8,21.8H1108.6z"/>
		<path class="st0" d="M388.5,1369.8c-3.9-24.4-31.2-27.5-44.8-15.6c-2.4,2.1-4.7,4.4-7.1,6.7c-0.6-0.9-1.2-1.4-1.3-1.9
			c-1-9.3-1-9.3-10.2-9.3c-1,0-2,0-3,0c-7.4,0.2-7.5,0.2-7.5,7.9c-0.1,28.3-0.1,56.7,0,85c0,7.8,0.1,8,8.5,7.9
			c16-0.2,13,2.2,13.4-12.8c0.4-17.3-0.9-34.6,1.2-51.9c0.7-5.9,2.7-11,7.5-14.7c8.3-6.4,18.1-3.3,21.4,6.7
			c1.1,3.9,1.5,7.9,1.4,11.9c0.1,15.3,0.1,30.7,0.1,46c0,15.5,0,15.3,15.4,15.1c5.2-0.1,6.8-1.7,6.7-6.9c-0.3-20.7-0.1-41.3-0.3-62
			C389.7,1377.7,389.2,1373.7,388.5,1369.8z"/>
		<path class="st0" d="M628.1,1373.6c-0.9-11.5-5.9-20.7-17.4-24.5c-11.3-3.7-21.6-1.3-30.4,7.1c-1.7,1.7-2.6,4.8-6.3,4.3
			c0-1.7,0-3.3,0-5s-0.2-3.3-0.3-4.9c-4.4-1.8-8.8-0.9-13-0.9c-6.8,0-6.9,0.1-6.9,7.3c-0.1,26.6,0,53.2,0,79.9
			c0,13.7,0,13.7,13.7,13.5c8.1-0.1,8.2-0.1,8.2-8.1c0.1-17,0.1-33.9,0.3-50.9c0-6.1,1-12,4.7-17c3.9-5.3,9.3-7.7,15.8-6.2
			s9,6.4,9.5,12.5c0.5,6.6,0.9,13.3,1,19.9c0.2,11.3,0,22.6,0,33.9c0,17.5,0.4,17.7,17.4,15.9c3.5-0.4,4.5-1.8,4.5-5
			C628.7,1421.5,630,1397.5,628.1,1373.6z"/>
		<path class="st0" d="M1778.5,1309.8c-3.7-0.3-7.4-0.2-11,0.3c-9.3,1.4-15.6,7.5-17.7,16.7c-1.3,5.9-1.8,11.9-1.5,17.9
			c0.1,3.1-0.7,4.7-4.3,5.1c-7.7,0.8-7.7,1-7.7,8.5c-0.1,11.1-0.1,11.1,12.1,12v64.6c0,16.8,0,16.7,16.8,15.7
			c3.9-0.2,5.3-1.5,5.1-5.3c-0.2-5,0-10,0-15c0-17.3,0-34.7,0-52c0-8.2,0.1-8.2,7.8-8.5h1c7.2-0.2,7.3-0.2,7.3-7
			c0-3.9,1.5-8.5-0.8-11.7s-6.8-1.2-10.3-1.2c-4.1,0-5-1.8-5.1-5.4c-0.4-11.6,2.3-14.9,13.2-14.3c4.6,0.3,6.3-0.6,7-5.5
			C1792.3,1311.8,1791.7,1310.6,1778.5,1309.8z"/>
		<path class="st0" d="M2507.5,1429c-13.4,2.2-14.4,1.5-14.7-12.1s0.1-27.3-0.2-41c-0.1-4.8,1.6-6.3,6.3-6.3
			c8.9-0.1,8.9-0.4,8.9-9.4c-0.1-1.3-0.1-2.7,0-4c0.9-5.5-1.9-6.7-6.8-6.6c-8.1,0-8.2-0.3-8.3-8.1c-0.1-6.7,0.1-13.3-0.1-20
			c0-2.1,1.1-4.7-2-6.3c-1.8,1.4-3.7,2.7-5.6,3.9c-9.9,5.5-17.1,12.3-14.4,25.2c0.7,3.3-0.6,6-4.8,5.5c-4.9-0.5-5.4,2.4-5.2,6.2
			c0.2,3,0.1,6,0,9c-0.1,3.3,1.2,5.2,4.7,4.8c4.6-0.5,5.5,2,5.4,6c-0.2,12-0.2,24,0,36c0.1,7.7,0.4,15.3,1.2,22.9
			c1,9.3,6.4,15.7,14.2,17.2c5.6,1,11.3,0.8,16.9-0.6c5.1-1.2,7.2-3.8,5.9-9.3C2507.9,1437.7,2507.9,1433.3,2507.5,1429z"/>
		<path class="st0" d="M1218,1429.1c-12.8,2.3-13.8,1.5-14-10.7c-0.2-14,0.1-28-0.2-42c-0.1-5.2,1.4-6.9,6.7-6.8
			c7.9,0.1,8-0.3,8-8.2c0-2.7,0-5.3,0-8c0-2.4-0.9-3.8-3.5-3.7c-1.7,0-3.4-0.2-5,0c-4.9,0.6-6.3-1.6-6.2-6.3
			c0.3-9.2,0.1-18.5,0.1-29.5c-3.4,2.2-5,3.3-6.7,4.3c-10.3,5.8-18.4,12.9-15.3,26.6c0.7,3-0.7,5.4-4.3,4.9
			c-5.5-0.7-5.9,2.5-5.6,6.7c0.2,3,0.1,6,0,9c0,2.7,0.8,4.8,3.9,4.4c6-0.8,6.2,2.7,6.2,7.2c-0.1,16,0,32,0.1,48
			c-0.1,5,0.5,10,2,14.8c1.8,5.3,5.1,9.6,10.5,11.3c7.5,2.5,15.1,1.8,22.5-0.9c2-0.5,3.3-2.4,3.1-4.5
			C1219.7,1440,1220,1434.3,1218,1429.1z"/>
		<path class="st0" d="M1865.6,1326.3c0-14.9,0-14.9-14.7-14.7c-8.6,0.1-8.6,0.1-8.6,8.7c0,38.3,0,76.5,0,114.8
			c0,15.7,0,15.7,16.1,15.2c7-0.2,7.1-0.2,7.2-7.2c0.1-20.6,0-41.3,0-61.9L1865.6,1326.3z"/>
		<path class="st0" d="M3004.8,1326.1c0-14.9,0-14.9-14.9-14.4c-6.9,0.2-7,0.2-7,7.4c-0.1,20.3,0,40.7,0,61c0,19.3-0.1,38.7,0,58
			c0.1,14.3-2,12.3,13,12.4c9.8,0.1,8.9,0.7,8.9-9.4C3004.8,1402.7,3004.8,1364.4,3004.8,1326.1z"/>
		<path class="st0" d="M1501.1,1349.4c-2.2-0.8-4.4-1.4-6.7-1.7c-9.4-1.3-14.6,4.6-19.9,13.5c-1.5-11.6-1.5-11.7-11.6-11.6
			c-10.3,0-9.9-1.2-9.9,9.5v76.8c0,14.9,0,14.9,14.9,14.5c6.9-0.2,7-0.2,7-7.2c0.1-16.3-0.1-32.6,0.9-48.8c0.3-5,1-10,3.1-14.5
			c3-6.2,8.2-8.4,14.8-6.2c1.8,0.6,3.6,1.5,5.7,2.3c3-5.8,3.5-12.2,5.8-18.1C1506.8,1353.3,1505.3,1351,1501.1,1349.4z"/>
		<path class="st0" d="M3253.5,1347.9c-6.8-0.9-12.4,0.9-16.7,6.6c-1.3,1.7-1.7,4.4-4.6,4.7c-1.4-9.5-1.4-9.5-11.3-9.5c-1,0-2,0-3,0
			c-6.9,0.2-7,0.2-7,7.3c-0.1,26.3,0,52.5,0,78.8c0,15,0,15,14.7,14.6c7-0.2,7.1-0.2,7.1-7.1c0.1-16.3-0.1-32.6,0.9-48.8
			c0.3-5,1-10,3-14.5c2.3-5.1,7.1-8.2,11.9-7.2c2.9,0.6,5.6,2,8.6,3.1c2.8-4.6,3.4-10,4.8-15
			C3264.8,1351.6,3263,1349.1,3253.5,1347.9z"/>
		<path class="st0" d="M448.3,1391.6c0-0.3,0-0.7,0-1c0.1-2.8-1-4.3-4.1-4.3c-11.3,0.1-22.6,0.1-33.9,0c-3.4,0-4.7,1.4-4.7,4.7
			c0.1,5.7,0.2,11.3,0,17c-0.2,4.2,1.2,6.1,5.6,5.8c5.3-0.3,10.6-0.1,17.1-0.1c5.7-1,14.7,3.3,18.9-1.8
			C451.1,1407.2,448,1398.5,448.3,1391.6z"/>
		<path class="st0" d="M1208.6,578.1c-2.9-38.9-10-76.9-20.2-114.4c-10.5-38.5-25-75.5-42.2-111.3c-14.2-29.6-30.6-58.2-49-85.5
			c-28.1-41.7-60-80.2-96.8-114.6c-27.7-25.9-57.8-49-89.9-69.1c-37.8-23.6-78.3-42.3-120.7-55.9c-27.5-8.8-55.7-15.4-84.3-19.7
			c-14.5-2.2-29-3.1-43.5-5.3l0,0l0,0L662,0h-74c0.1,0.3,0.1,0.7,0.1,1.1l0,0c-21.5,0.3-42.9,2.3-64,5.9
			c-47.6,8.4-94.1,22.1-138.6,40.8c-43.1,18.2-83.8,40.8-122.7,66.8c-52.4,35.1-98.9,76.7-138.7,125.7
			c-41.8,51.4-74,108.3-95.4,171.1C14.7,452.2,4.4,493.9,2,537.1c0,1.3,0,2.6,0,4v0.1C1.8,543,2,545,0,546v20c0.1,0,0.2,0.1,0.3,0.2
			L0,566v68c4.1,2.3,0.4,7.5,3.8,10.1l0,0c3.8,33,9.4,65.7,18.1,97.8C34,787.4,51,831.4,72.6,873.2c10.1,19.4,20.9,38.5,32.9,56.9
			c12.5,19.2,25.5,37.9,39.4,56c24.3,31.6,51.7,60.7,81.9,86.7c32.5,28,67.1,53,105.4,72.9c18.9,9.8,38,19.3,57.7,26.9
			c43.9,17.2,89.8,28.6,136.6,33.9c51.7,5.8,103.9,4.5,155.2-3.8c32.1-5.3,63.8-13.1,94.7-23.3c36-11.7,70.8-26.6,104.2-44.4
			c32.6-17.3,63.7-37,93.3-59c41.3-30.7,78.8-66.3,111.6-106c23-28,43.2-58.3,60.2-90.2c15.2-28,27.8-57.4,37.7-87.7
			c11.1-34.1,18.8-69.2,23-104.8C1210.6,651.2,1211.3,614.5,1208.6,578.1z M909,237.7c3,0.2,3.7,2.2,4.7,4.4
			c16.8,34.5,31,70.2,42.6,106.8c12.8,41,21.4,82.8,27.3,125.3c0.9,6.6,1.4,13.2,2,19.8c0,0.6-0.5,1.2-1,2.3
			c-26.7-6.4-53.7-11.3-80.9-14.9c-42.9-5.6-86.3-7-129.5-4c-4.3,0.5-8.6-0.8-11.9-3.6c-21.2-17.2-44.2-31.8-67.4-45.9
			c-16.5-9.9-33.7-18.5-50.9-27.3c-4.1-2.1-6.9-4.4-8.9-8.5c-11-22.8-24.1-44.3-36.3-66.4c-5-9-10.9-17.4-16.5-26.1
			c-1.8-2.7-3.8-5.3-5-9.2c11.5-4.2,22.5-8.7,33.8-12.4c16.4-5.3,33.1-10,49.5-15.2c5.8-1.9,9.4-0.3,13.6,4.3
			c16.8,18.6,37.9,25.4,62.3,19.2c21.1-5.4,35.7-18.9,42.9-39.4c1.8-5.2,4.1-6.5,9-7c35.5-3.6,71.1-4.1,106.7-3.3
			C899.7,236.5,904.3,237.4,909,237.7z M672.7,467.5c9.3,4.1,16.6,11.1,24.9,17.6c-5.7,1.1-11.4,2-16.9,3.5c-3.4,0.9-4.9-0.2-6.1-3
			c-2.2-4.8-3.9-9.8-5-14.9L672.7,467.5z M461.5,114.9C511,100.3,562.4,93.3,614,94.3c63.6,1.2,125.2,13.4,184.4,37.7
			c21.5,8.9,42,19.8,62.9,30c11.8,5.8,17.7,16.1,23.8,29c-9.2,0-16.9,0.1-24.7,0c-25.9-0.1-51.9,1-77.7,3.5c-5,0.5-8-0.7-10.8-4.8
			c-18.4-26.7-56.3-34.5-84.1-16.3C675,181.7,666,193,662,207.6c-1.8,6.6-4.6,9.6-11.7,11.2c-30,7.1-59.1,17.4-88,28.4
			c-2.2,0.8-4.4,1.6-6.4,2.6c-4.2,2.1-6.9,1.4-10-2.7c-12.9-17.3-26.6-34-40.7-50.4c-18.8-22-39-42.7-59.8-62.7
			c-3.3-3.1-6.4-6.4-10.4-10.5C444.6,120.3,453,117.4,461.5,114.9z M567.8,368.4c-31.1-11-63-19.3-97.1-26.9
			c8.2-4.7,14.6-8.6,21.2-12.1c12-6.2,24.2-12.1,36.3-18.2c3.4-1.7,5.6-1.8,8.2,2c12.2,17.7,23.5,36,33.7,54.9L567.8,368.4z
			 M205.7,286.6c26.3-33,56.5-62.7,90-88.3c27.7-21.4,57.7-38.9,89-54.3c3-1.5,4.2,0.2,6,1.6c11.7,9.4,22.2,20.1,32.9,30.6
			c28.3,28.1,54.8,58,79.2,89.5c1.2,1.6,2.1,3.4,3.5,5.7c-24.3,11.4-47.3,24.9-70.6,38c-10.1,5.7-19.9,12-29.4,18.6
			c-3.7,2.6-7.3,4.5-12,3.3c-11.4-2.7-23.2-2.2-34.7-2.6c-30.3-1.2-60.6-0.3-90.8,2.7c-34.4,3.5-68.4,9.2-102.1,17.1
			c-1,0-2.1-0.1-3.1-0.2C176.2,326.7,190.2,306.1,205.7,286.6L205.7,286.6z M103.9,680h-3.7c-2.8-8.3-2.7-17.1-3.6-25.6
			c-3.9-38.7-3.2-77.7,1.9-116.3c5.8-43.9,17.4-86.4,33.9-127.6c1.9-4.8,4.9-7.2,9.9-8.7c46.1-13.7,92.9-22.9,140.9-26.2
			c16.3-1.1,32.6-2.1,48.9-1.9c2.2,0,4.6-0.7,7,1.1c-0.6,2.7-2.9,4-4.8,5.6c-19.3,16.2-38.6,32.6-56.1,50.8c-4.1,4.3-8.1,2.9-12.7,2
			c-20.1-4-38.3,0.4-54,13.7c-20.4,17.2-27.4,45-17.4,70.7c2.3,5.8,0.9,9-2.2,13.2c-32.9,44.3-61.1,91.9-84.2,142
			C106.5,675.3,105.1,677.6,103.9,680z M194.7,836c1.8,3,3.4,5.5,1.2,8.9c-7,10.9-11.6,23.1-17.9,34.5c-0.5,0.8-1.1,1.5-1.8,2.2
			c-4.2-1.3-5.3-5.1-7.1-8.1c-15.6-27.3-30.9-54.9-41.7-84.6c-2.6-7.2-4.8-14.5-7.3-21.7c-1.2-3.4-0.3-6.5,0.9-9.7
			c19.3-52.2,42.9-102.2,72.8-149.3c10.5-16.6,21.5-32.8,32.8-48.8c3-4.3,5.9-6.2,11.5-4.8c38.5,10,80.5-21.9,75.5-69.5
			c-0.5-5-1.9-9.8-3.9-14.3c-1.8-4.1-1.2-6.3,2-9.3c17.8-17,35.9-33.5,55.1-48.9c13.2-10.5,26.8-20.4,40.2-30.6
			c3.9-3,7.8-3.6,13-2.8c23.4,3.5,46.6,7.6,69.5,13.2c21.6,5.2,42.9,11.6,63.8,19.1c13.4,4.9,26.7,10,39.9,15.4
			c6.6,2.7,11.2,6.4,14.3,13.7c7,16.4,13.9,33,20.2,49.7c3.6,9.5,3.3,9.4-6.4,12.4c-34.2,10.5-67.8,22.5-100.5,37.5
			c-27.4,12.6-54.1,27-79.7,42.9c-46.3,28.7-88.9,63-127,101.9c-16.5,16.9-32.5,34.3-47,52.9c-3.7,4.7-7.6,4.1-12.3,3.7
			c-26.8-2.2-47.5,7.8-60.9,31.2C181.6,793.8,182.3,815.1,194.7,836L194.7,836z M634.4,1085.7c-2.8,7.5-5.6,14.9-8.2,22.4
			c-3.5,9.6-3.4,9.6-14,9.7h-23c-39.6-1.7-78.8-7.7-117.1-18c-28.2-7.6-55.7-17.6-82.1-29.8c-28-13-54.8-28.6-79.9-46.6
			c-29.4-21.1-56.6-45-81.3-71.5c-6.5-7-12.3-14.8-18.8-21.8c-3.1-3.3-2.8-6.1-1.1-9.7c7.7-16.5,15.3-33.2,23.8-49.3
			c2.1-4,4.2-5.8,9.2-5.4c10,0.8,19.6-1,29.2-4.5c28.8-10.4,50.9-50.6,32.1-86.1c-2.6-5-2.2-7.9,1.2-12.1
			c37.5-45.8,80.5-85.5,128.5-120c25.3-18.2,52-34.5,79.8-48.6c40.4-20.7,82.8-37.3,126.6-49.6c5.3-1.5,7.2,0.5,8.4,5
			c4,15.4,8.3,30.7,12.2,46.1c4.5,18.3,8.4,36.8,11.4,55.5c1.7,10.5,2.9,21,4.7,31.4c0.7,4-1.5,5.1-4.2,6.8
			c-20.6,13.1-32.2,31.7-31.2,56.3c1,25.3,12.9,44.2,36.7,54.4c5.1,2.2,6.8,4.9,6.6,10.4c-1.2,30.5-3,61-6.5,91.3
			c-3.9,32.9-9.8,65.6-17.4,97.9C653.2,1028.9,644.6,1057.6,634.4,1085.7L634.4,1085.7z M768.6,1087.6c-3.1,3.1-6.2,5.9-10.5,7.3
			c-26.3,8.1-53.3,14.1-80.6,17.8c-0.9,0-1.9-0.1-2.7-0.4c-1.7-3.4,0.4-6,1.3-8.6c14.6-40.7,26.2-82.3,34.7-124.7
			c5.8-28.3,10.2-56.8,13.1-85.5c3.1-29.6,5.1-59.3,4.7-89.1c0-3.9,2.7-4.9,5.2-6.5c8.6-5.6,16-12.9,21.7-21.5
			c17.4-26.8,11.6-70.3-24.2-87.7c-7.4-3.6-10.1-8-10.9-15.5c-3.7-34.4-11.4-68-19.1-101.6c-2.4-10.3-6-20.4-8.9-30.6
			c-0.7-2.5-2.1-4.9-1.3-8c18.8-3.7,37.8-6.5,56.9-8.8c3.6-0.4,6.2,0.8,8.9,3.1c26.6,22.1,51.1,46.5,74.1,72.3c3.6,4,3.8,7,1.4,12.1
			c-15.6,32.6-3.2,68.7,30.5,84.6c10.2,4.8,21.4,7.1,33,4.8c7.7-1.5,7.6-1.1,11.3,5.7c13.4,24.8,25.8,50,36.9,75.9
			c4.4,10.3,6.2,19.5,1.7,31c-17.7,45.3-37.8,89.2-63.2,130.8C850.7,996.7,812.4,1044.8,768.6,1087.6L768.6,1087.6z M982.6,952.5
			c-19.3,20.5-39.7,40-62,57.2c-16.1,12.4-32.5,24.5-50.5,34.3c0.3-0.6,0.3-1.2,0.1-1.8c14.1-19.3,28.3-38.4,41.2-58.5
			c22.5-35,41.6-71.7,58.7-109.5l3.8-1.9c5.1,21.2,9.1,42.7,13.1,64.1C988.1,942.8,987.1,947.6,982.6,952.5L982.6,952.5z
			 M987.4,615.4c-1.1,19.5-3.8,38.9-6.5,58.2c-2.3,17.6-5.6,35.1-9.9,52.4c-3.8-0.8-4.6-3.5-5.5-5.8c-5.8-14.2-14.5-26.9-21.6-40.4
			c-2.4-4.6-2.5-7.9-0.1-12.7c13.1-25.5,6.9-56.6-14.8-75.2c-14.2-12.4-31-16.2-49.2-14c-5.5,0.7-8.3-0.8-11.7-4.8
			c-11.7-14-24.1-27.4-37.3-40.1c-3.2-3.2-6.7-6.2-10.3-12.2c16.2,0.7,30.2,0.8,44,1.9c27.5,2.3,54.9,5.7,81.9,11.5
			c12.3,2.6,24.5,6,36.8,8.6c4.6,1,5.3,3.4,5.6,7.5C990.1,572.1,988.6,593.7,987.4,615.4L987.4,615.4z M966.4,247
			c-0.5-1.1-1.6-2.2,0.2-4.7c82.7,83.4,131.4,183,147.6,300.1c-23.1-11-45.3-20.7-68.4-27.5c-10.8-3.2-13.7-8.2-14.5-19
			c-2.6-32.4-7.4-64.6-14.5-96.3c-6.1-27.9-13.7-55.5-22.8-82.5C986,293.2,977.2,269.7,966.4,247L966.4,247z M1115.4,658.3
			c-2.3,21.7-6,43.3-11.1,64.6c-5.6,23.6-13.2,46.4-21.7,69.1c-9.3,25-21.4,48.6-34.4,71.7c-6.2,11.3-13.2,22.2-21,32.5
			c-4.1-3.2-3.2-7.6-4-11.3c-6.1-28.5-14-56.6-23.7-84.1c-1.4-3.9-0.3-7.1,0.8-10.5c10.7-32.5,17.8-65.8,23.4-99.5
			c7.3-42.8,10.8-86.1,10.6-129.5c2.1-2,4.1-1.3,5.9-0.7c25.2,9.1,49.5,20.4,73.8,31.8c3.2,1.5,3.9,3.9,3.9,7.2
			C1118.3,619.2,1117.5,638.7,1115.4,658.3L1115.4,658.3z"/>
	</g>
</g>
</svg>
