<svg xmlns="http://www.w3.org/2000/svg" width="12" height="6" viewBox="0 0 12 6">
  <defs>
    <style>
      .cls-1 {
        fill: #202662;
        fill-rule: evenodd;
      }
    </style>
  </defs>
  <path id="next-icon" class="cls-1" d="M808.9,1987.66v-1.13h0a0.431,0.431,0,0,1,.135-0.32,0.707,0.707,0,0,1,.872-0.1l3.843,2.46a0.363,0.363,0,0,1,.117.12,0.456,0.456,0,0,1-.117.73l-3.809,2.45a0.756,0.756,0,0,1-.42.12,0.574,0.574,0,0,1-.621-0.52v-1.12h-6.27a0.576,0.576,0,0,1-.621-0.52v-1.65a0.576,0.576,0,0,1,.621-0.52h6.27Z" transform="translate(-802 -1986)"/>
</svg>
