<?xml version="1.0" encoding="utf-8"?>
<!-- Generator: Adobe Illustrator 23.0.3, SVG Export Plug-In . SVG Version: 6.00 Build 0)  -->
<svg version="1.1" id="Layer_1" xmlns="http://www.w3.org/2000/svg" xmlns:xlink="http://www.w3.org/1999/xlink" x="0px" y="0px"
	 viewBox="0 0 10 14" style="enable-background:new 0 0 10 14;" xml:space="preserve">
<style type="text/css">
	.st0{fill-rule:evenodd;clip-rule:evenodd;fill:#002E62;}
</style>
<path id="location-icon" class="st0" d="M4.9,0C2.2,0.1,0,2.3,0,5.1c0,1.8,1.9,4.9,3.5,7.2c0.4,0.5,0.7,1,1.2,1.5
	C4.8,14,5,14.1,5.2,13.9c0,0,0.1-0.1,0.1-0.1c0,0,0.5-0.6,1.2-1.5C8.1,10,10,6.9,10,5.1C10,2.3,7.7,0.1,4.9,0z M4.9,2.7
	c1.3,0,2.4,1,2.5,2.3c0,1.3-1,2.4-2.3,2.5s-2.4-1-2.5-2.3c0,0,0-0.1,0-0.1C2.6,3.8,3.7,2.8,4.9,2.7L4.9,2.7z"/>
</svg>
